<?xml version="1.0" encoding="utf-8"?>
<!-- Generator: Adobe Illustrator 17.0.0, SVG Export Plug-In . SVG Version: 6.00 Build 0)  -->
<!DOCTYPE svg PUBLIC "-//W3C//DTD SVG 1.1//EN" "http://www.w3.org/Graphics/SVG/1.1/DTD/svg11.dtd">
<svg version="1.1" id="Слой_1" xmlns="http://www.w3.org/2000/svg" xmlns:xlink="http://www.w3.org/1999/xlink" x="0px" y="0px"
	 width="29.5px" height="28.115px" viewBox="0 0 29.5 28.115" enable-background="new 0 0 29.5 28.115" xml:space="preserve">
<g>
	<defs>
		<rect id="SVGID_1_" y="0" width="29.5" height="28.115"/>
	</defs>
	<clipPath id="SVGID_2_">
		<use xlink:href="#SVGID_1_"  overflow="visible"/>
	</clipPath>
	<path clip-path="url(#SVGID_2_)" fill="#E74C3C" d="M23.808,24.829c0,0.856,0.696,1.552,1.552,1.552
		c0.856,0,1.552-0.697,1.552-1.552c0-0.856-0.696-1.552-1.552-1.552C24.504,23.277,23.808,23.973,23.808,24.829 M25.831,24.829
		c0,0.26-0.211,0.471-0.471,0.471c-0.26,0-0.47-0.211-0.47-0.471s0.211-0.47,0.47-0.47C25.62,24.358,25.831,24.569,25.831,24.829"/>
	<path clip-path="url(#SVGID_2_)" fill="#E74C3C" d="M6.606,23.277c-0.856,0-1.552,0.696-1.552,1.552
		c0,0.856,0.697,1.552,1.552,1.552c0.856,0,1.552-0.697,1.552-1.552C8.158,23.973,7.462,23.277,6.606,23.277 M6.606,25.299
		c-0.26,0-0.471-0.211-0.471-0.471s0.211-0.47,0.471-0.47c0.259,0,0.47,0.211,0.47,0.47S6.866,25.299,6.606,25.299"/>
	<path clip-path="url(#SVGID_2_)" fill="#E74C3C" d="M12.857,23.277c-0.856,0-1.552,0.696-1.552,1.552
		c0,0.856,0.696,1.552,1.552,1.552c0.856,0,1.552-0.697,1.552-1.552C14.41,23.973,13.713,23.277,12.857,23.277 M12.857,25.299
		c-0.26,0-0.47-0.211-0.47-0.471s0.211-0.47,0.47-0.47c0.26,0,0.471,0.211,0.471,0.47S13.117,25.299,12.857,25.299"/>
	<path clip-path="url(#SVGID_2_)" fill="#E74C3C" d="M19.109,23.277c-0.856,0-1.552,0.696-1.552,1.552
		c0,0.856,0.697,1.552,1.552,1.552c0.856,0,1.552-0.697,1.552-1.552C20.661,23.973,19.965,23.277,19.109,23.277 M19.109,25.299
		c-0.26,0-0.471-0.211-0.471-0.471s0.211-0.47,0.471-0.47c0.26,0,0.47,0.211,0.47,0.47S19.369,25.299,19.109,25.299"/>
	<path clip-path="url(#SVGID_2_)" fill="#2C3947" d="M28.445,20.297c0.661-0.413,1.055-1.124,1.055-1.902
		c0-0.1-0.007-0.204-0.022-0.311c-0.329-2.361-2.129-4.22-4.479-4.627l-1.564-0.27c-1.212-0.209-2.363-0.609-3.432-1.19
		c0.009-0.024,0.018-0.049,0.024-0.075c0.038-0.165-0.004-0.339-0.113-0.468l-2.112-2.517c-0.156-0.186-0.416-0.245-0.637-0.145
		l-0.621,0.281c-0.117-0.149-0.231-0.301-0.341-0.457c0.089-0.035,0.169-0.092,0.229-0.169c0.103-0.13,0.14-0.3,0.101-0.461
		L15.776,4.84c-0.058-0.243-0.276-0.423-0.526-0.423h-0.738V0.541C14.512,0.242,14.255,0,13.957,0h-1.216
		c-1.235,0-2.25,0.992-2.349,2.163H3.136c-0.272,0-0.501,0.202-0.536,0.472l-1.189,9.216c-0.348,2.698,0.22,5.445,1.6,7.782
		l-2.882,3.379C0.046,23.11,0,23.234,0,23.363v2.163c0,0.299,0.242,0.524,0.541,0.524h3.021c0.49,1.262,1.669,2.057,3.044,2.057
		c1.458,0,2.697-0.95,3.126-2.268c0.429,1.317,1.668,2.274,3.126,2.274c1.458,0,2.697-0.954,3.126-2.271
		c0.429,1.317,1.667,2.272,3.126,2.272c1.458,0,2.697-0.954,3.126-2.271c0.429,1.317,1.668,2.272,3.126,2.272
		c1.813,0,3.287-1.474,3.287-3.287c0-1.506-1.019-2.778-2.403-3.165l0.494-0.82C27.343,20.806,27.928,20.62,28.445,20.297
		 M17.238,9.946l1.388,1.654l-8.803,3.956L9.03,13.66L17.238,9.946z M11.448,2.357c0-0.704,0.59-1.276,1.293-1.276h0.69v3.335
		h-1.983V2.357z M14.825,5.499l0.496,2.073H9.735V5.499H14.825z M2.484,11.989l1.128-8.744h6.754v1.172H9.194
		c-0.222,0-0.412,0.18-0.496,0.361H8.653v1.063v1.406v1.046h0.045c0.084,0.27,0.274,0.361,0.496,0.361h5.738
		c0.187,0.27,0.388,0.593,0.601,0.877l-7.427,3.36c-0.267,0.121-0.389,0.432-0.276,0.701l1.21,2.894
		c0.056,0.135,0.164,0.24,0.3,0.294c0.064,0.025,0.131,0.038,0.199,0.038c0.076,0,0.151-0.016,0.221-0.048l9.194-4.132
		c0.172,0.105,0.345,0.205,0.521,0.301l-1.131,1.049c-0.219,0.203-0.232,0.545-0.029,0.764c0.107,0.115,0.251,0.173,0.397,0.173
		c0.132,0,0.263-0.048,0.368-0.144l1.441-1.336c0.293,0.125,0.59,0.239,0.892,0.34l-0.74,0.906
		c-0.189,0.231-0.155,0.572,0.077,0.761c0.1,0.082,0.221,0.122,0.342,0.122c0.157,0,0.312-0.068,0.419-0.199l1.036-1.268
		c0.233,0.054,0.468,0.103,0.705,0.144l1.564,0.28c1.717,0.297,3.068,1.513,3.494,3.225H11.681c-4.372,0-8.346-2.615-9.234-3.239
		C2.365,13.684,2.375,12.83,2.484,11.989 M6.606,27.034c-1.216,0-2.205-0.989-2.205-2.205c0-1.216,0.989-2.205,2.205-2.205
		c1.216,0,2.205,0.989,2.205,2.205C8.811,26.045,7.822,27.034,6.606,27.034 M12.857,27.034c-1.216,0-2.205-0.989-2.205-2.205
		c0-1.216,0.989-2.205,2.205-2.205c1.216,0,2.205,0.989,2.205,2.205C15.063,26.045,14.073,27.034,12.857,27.034 M19.109,27.034
		c-1.216,0-2.205-0.989-2.205-2.205c0-1.216,0.989-2.205,2.205-2.205c1.216,0,2.205,0.989,2.205,2.205
		C21.314,26.045,20.325,27.034,19.109,27.034 M22.235,23.814c-0.429-1.317-1.668-2.272-3.126-2.272
		c-1.458,0-2.697,0.955-3.126,2.272c-0.429-1.317-1.667-2.272-3.126-2.272c-1.458,0-2.697,0.955-3.126,2.272
		c-0.429-1.317-1.668-2.272-3.126-2.272c-1.813,0-3.287,1.466-3.287,3.278c0,0.052,0.001,0.148,0.004,0.148H1.082v-1.406
		l2.839-3.329l21.566,0.591l-0.442,0.734C23.726,21.683,22.632,22.593,22.235,23.814 M27.566,24.829
		c0,1.216-0.989,2.205-2.205,2.205c-1.216,0-2.205-0.989-2.205-2.205c0-1.216,0.989-2.205,2.205-2.205
		C26.576,22.624,27.566,23.613,27.566,24.829 M3.984,19.152c-0.596-0.993-1.03-2.059-1.293-3.174
		c1.688,1.05,5.144,2.861,8.991,2.861h16.657c-0.089,0.18-0.25,0.415-0.466,0.55c-0.429,0.268-0.924,0.397-1.429,0.384L3.984,19.152
		z"/>
	<path clip-path="url(#SVGID_2_)" fill="#E74C3C" d="M4.327,5.3v2.488c0,0.299,0.242,0.505,0.54,0.505h3.786V7.211H5.408V5.859
		h3.245V4.777H4.867C4.569,4.777,4.327,5.001,4.327,5.3"/>
</g>
</svg>
