
<svg version="1.1" id="Слой_1" xmlns="http://www.w3.org/2000/svg" xmlns:xlink="http://www.w3.org/1999/xlink" x="0px" y="0px"
	 width="29.562px" height="29.56px" viewBox="0 0 29.562 29.56" enable-background="new 0 0 29.562 29.56" xml:space="preserve">
<g>
	<defs>
		<rect id="SVGID_1_" y="0" width="29.562" height="29.56"/>
	</defs>
	<clipPath id="SVGID_2_">
		<use xlink:href="#SVGID_1_"  overflow="visible"/>
	</clipPath>
	<path clip-path="url(#SVGID_2_)" fill="#2C3947" d="M28.022,19.387l-0.223-0.224l0.342-0.34c0.26-0.259,0.404-0.607,0.404-0.974
		c0-0.368-0.144-0.715-0.404-0.975l-3.178-3.178c-0.522-0.522-1.43-0.522-1.949,0l-0.342,0.34l-7.144-7.147l0.34-0.339
		c0.537-0.538,0.537-1.412,0-1.949l-3.179-3.178c-0.522-0.522-1.429-0.522-1.949,0l-0.342,0.339L10.176,1.54
		c-2.055-2.052-5.395-2.055-7.447,0L1.541,2.728c-2.055,2.052-2.055,5.395,0,7.447l0.221,0.221l-0.34,0.34
		c-0.537,0.537-0.537,1.414,0,1.952l3.178,3.178c0.268,0.267,0.62,0.401,0.975,0.401c0.352,0,0.704-0.134,0.974-0.401l0.34-0.342
		l7.146,7.147l-0.342,0.34c-0.26,0.262-0.402,0.606-0.402,0.977c0,0.367,0.142,0.712,0.404,0.974l3.178,3.178
		c0.259,0.26,0.607,0.404,0.974,0.404c0.368,0,0.715-0.144,0.975-0.404l0.339-0.342l0.221,0.221c1.029,1.028,2.377,1.54,3.724,1.54
		c1.35,0,2.697-0.512,3.726-1.54l1.185-1.186C30.075,24.779,30.075,21.439,28.022,19.387 M23.756,14.439
		c0.123-0.121,0.337-0.124,0.46,0l3.178,3.178c0.062,0.062,0.095,0.144,0.095,0.232c0,0.087-0.034,0.167-0.095,0.228l-0.339,0.342
		l-3.639-3.639L23.756,14.439z M11.482,2.165c0.124-0.123,0.337-0.12,0.461,0l3.178,3.179c0.128,0.128,0.128,0.334,0,0.46
		l-0.34,0.342l-0.779-0.781l-2.86-2.857L11.482,2.165z M6.147,14.781l-0.342,0.339c-0.126,0.128-0.332,0.126-0.46,0l-3.178-3.178
		c-0.126-0.126-0.126-0.332,0-0.46l0.34-0.34l2.859,2.86L6.147,14.781z M18.42,27.055l-0.342,0.34c-0.121,0.123-0.337,0.123-0.458,0
		l-3.181-3.178c-0.059-0.062-0.095-0.142-0.095-0.229c0-0.088,0.036-0.17,0.095-0.232l0.342-0.339L18.42,27.055z M27.277,26.088
		l-1.188,1.188c-1.643,1.641-4.315,1.641-5.958,0l-0.221-0.221l-5.128-5.13L2.287,9.43c-1.643-1.643-1.643-4.315,0-5.958
		l1.188-1.188c0.82-0.82,1.898-1.232,2.978-1.232c1.078,0,2.157,0.411,2.98,1.232l0.221,0.224l3.935,3.932l8.34,8.342l5.349,5.349
		C28.92,21.773,28.92,24.445,27.277,26.088"/>
	<path clip-path="url(#SVGID_2_)" fill="#E74C3C" d="M6.195,7.329c0,0.342-0.278,0.62-0.619,0.62c-0.342,0-0.62-0.278-0.62-0.62
		c0-0.342,0.278-0.619,0.62-0.619C5.917,6.709,6.195,6.987,6.195,7.329"/>
	<path clip-path="url(#SVGID_2_)" fill="#E74C3C" d="M7.949,5.575c0,0.342-0.278,0.62-0.619,0.62c-0.342,0-0.62-0.278-0.62-0.62
		c0-0.342,0.278-0.619,0.62-0.619C7.671,4.955,7.949,5.233,7.949,5.575"/>
	<path clip-path="url(#SVGID_2_)" fill="#E74C3C" d="M7.949,9.082c0,0.342-0.278,0.62-0.619,0.62c-0.342,0-0.62-0.278-0.62-0.62
		c0-0.342,0.278-0.619,0.62-0.619C7.671,8.463,7.949,8.741,7.949,9.082"/>
	<path clip-path="url(#SVGID_2_)" fill="#E74C3C" d="M9.703,7.329c0,0.342-0.278,0.62-0.619,0.62c-0.345,0-0.62-0.278-0.62-0.62
		c0-0.342,0.275-0.619,0.62-0.619C9.425,6.709,9.703,6.987,9.703,7.329"/>
	<path clip-path="url(#SVGID_2_)" fill="#E74C3C" d="M21.54,22.671c0,0.342-0.278,0.619-0.62,0.619
		c-0.344,0-0.622-0.278-0.622-0.619c0-0.342,0.278-0.62,0.622-0.62C21.262,22.051,21.54,22.328,21.54,22.671"/>
	<path clip-path="url(#SVGID_2_)" fill="#E74C3C" d="M23.291,20.917c0,0.342-0.278,0.619-0.619,0.619
		c-0.342,0-0.62-0.278-0.62-0.619c0-0.342,0.278-0.62,0.62-0.62C23.013,20.297,23.291,20.575,23.291,20.917"/>
	<path clip-path="url(#SVGID_2_)" fill="#E74C3C" d="M23.291,24.424c0,0.342-0.278,0.619-0.619,0.619
		c-0.342,0-0.62-0.278-0.62-0.619c0-0.342,0.278-0.619,0.62-0.619C23.013,23.805,23.291,24.082,23.291,24.424"/>
	<path clip-path="url(#SVGID_2_)" fill="#E74C3C" d="M25.045,22.671c0,0.342-0.278,0.619-0.619,0.619
		c-0.342,0-0.62-0.278-0.62-0.619c0-0.342,0.278-0.62,0.62-0.62C24.767,22.051,25.045,22.328,25.045,22.671"/>
</g>
</svg>
