<?xml version="1.0" encoding="utf-8"?>
<!-- Generator: Adobe Illustrator 17.0.0, SVG Export Plug-In . SVG Version: 6.00 Build 0)  -->
<!DOCTYPE svg PUBLIC "-//W3C//DTD SVG 1.1//EN" "http://www.w3.org/Graphics/SVG/1.1/DTD/svg11.dtd">
<svg version="1.1" id="Слой_1" xmlns="http://www.w3.org/2000/svg" xmlns:xlink="http://www.w3.org/1999/xlink" x="0px" y="0px"
	 width="26.081px" height="23.614px" viewBox="0 0 26.081 23.614" enable-background="new 0 0 26.081 23.614" xml:space="preserve">
<g>
	<defs>
		<rect id="SVGID_1_" y="0" width="26.081" height="23.614"/>
	</defs>
	<clipPath id="SVGID_2_">
		<use xlink:href="#SVGID_1_"  overflow="visible"/>
	</clipPath>
	<path clip-path="url(#SVGID_2_)" fill="#2C3947" d="M26.066,1.403c-0.115-0.876-0.803-1.329-1.835-1.213
		c-2.686,0.307-4.152,0.236-6.856,0C10.171-0.437,5.33,0.485,2.58,3.008C0.867,4.58-0.002,6.785,0,9.558v2.811l0.007,0.078
		C0.24,13.85,1.02,15.05,2.203,15.833c0.935,0.62,2.077,0.941,3.278,0.941c0.497,0,1.004-0.064,1.51-0.174l5.202,1.734
		c-0.002,0.043-0.011,0.083-0.011,0.126c0,0.919,0.535,1.709,1.308,2.091l-0.816,2.448c-0.083,0.245,0.05,0.51,0.297,0.592
		c0.048,0.016,0.098,0.023,0.146,0.023c0.197,0,0.38-0.124,0.446-0.32l0.835-2.503c0.041,0.002,0.083,0.012,0.126,0.012
		c1.29,0,2.343-1.05,2.343-2.343c0-0.918-0.538-1.707-1.309-2.091l2.631-7.894c0.524-0.124,1.1-0.229,1.748-0.325
		C23.281,7.648,26.329,3.402,26.066,1.403 M15.929,18.459c0,0.775-0.629,1.407-1.404,1.407c-0.775,0-1.407-0.631-1.407-1.407
		c0-0.774,0.632-1.405,1.407-1.405C15.3,17.054,15.929,17.684,15.929,18.459 M14.65,16.13c-0.044-0.002-0.083-0.013-0.126-0.013
		c-0.92,0-1.707,0.538-2.091,1.308L8.641,16.16c2.436-0.771,3.12-1.711,4.873-4.477c0.941-1.48,1.936-2.336,3.587-2.898L14.65,16.13
		z M19.8,7.22c-3.818,0.57-5.537,1.533-7.078,3.962c-1.977,3.116-2.4,3.656-5.804,4.479c-1.526,0.368-3.056,0.146-4.2-0.611
		c-0.952-0.629-1.583-1.594-1.78-2.72V9.558C0.936,7.021,1.681,5.106,3.214,3.697c2.509-2.302,7.247-3.168,14.081-2.574
		c2.706,0.236,4.283,0.311,7.042-0.002c0.734-0.084,0.78,0.234,0.801,0.403C25.324,2.956,22.645,6.795,19.8,7.22"/>
	<path clip-path="url(#SVGID_2_)" fill="#E74C3C" d="M11.006,6.067c-0.353-0.128-0.734-0.112-1.075,0.046L7.828,7.092
		C7.49,7.25,7.231,7.531,7.103,7.886C6.973,8.238,6.989,8.62,7.147,8.959c0.238,0.512,0.746,0.812,1.277,0.812
		c0.199,0,0.4-0.041,0.593-0.131l2.102-0.979c0.338-0.158,0.597-0.439,0.726-0.794c0.13-0.353,0.114-0.734-0.044-1.073
		C11.64,6.456,11.358,6.197,11.006,6.067 M10.963,7.547c-0.043,0.119-0.128,0.213-0.24,0.265L8.62,8.792
		C8.384,8.899,8.105,8.799,7.995,8.565c-0.053-0.114-0.057-0.24-0.013-0.359c0.043-0.117,0.128-0.213,0.24-0.263l2.105-0.979
		c0.112-0.053,0.238-0.06,0.357-0.016c0.119,0.043,0.213,0.13,0.265,0.242C11.001,7.302,11.006,7.431,10.963,7.547"/>
	<path clip-path="url(#SVGID_2_)" fill="#E74C3C" d="M6.234,10.466c0.128-0.352,0.112-0.734-0.046-1.075
		C6.03,9.052,5.749,8.796,5.394,8.666C5.042,8.537,4.66,8.554,4.321,8.711L2.217,9.691c-0.702,0.327-1.007,1.164-0.679,1.867
		c0.158,0.338,0.439,0.597,0.792,0.725c0.158,0.057,0.322,0.087,0.485,0.087c0.201,0,0.402-0.043,0.59-0.13l2.102-0.979
		C5.847,11.102,6.104,10.819,6.234,10.466 M5.353,10.146c-0.044,0.117-0.128,0.213-0.242,0.264l-2.102,0.979
		c-0.112,0.052-0.24,0.059-0.36,0.016c-0.117-0.043-0.21-0.128-0.263-0.242c-0.11-0.234-0.007-0.512,0.227-0.623L4.717,9.56
		c0.112-0.052,0.238-0.057,0.357-0.013c0.117,0.041,0.213,0.128,0.263,0.24C5.39,9.899,5.397,10.027,5.353,10.146"/>
	<path clip-path="url(#SVGID_2_)" fill="#E74C3C" d="M3.507,7.556c0.158,0.059,0.32,0.087,0.483,0.087
		c0.204,0,0.403-0.043,0.593-0.131l2.102-0.979C7.023,6.376,7.282,6.094,7.409,5.74C7.54,5.387,7.524,5.005,7.366,4.667
		C7.209,4.326,6.927,4.07,6.573,3.94C6.22,3.811,5.838,3.827,5.5,3.985L3.395,4.964C3.056,5.122,2.798,5.404,2.67,5.756
		C2.539,6.111,2.555,6.492,2.713,6.831C2.871,7.169,3.152,7.428,3.507,7.556 M3.548,6.078c0.043-0.119,0.13-0.213,0.242-0.265
		l2.102-0.979c0.062-0.03,0.128-0.043,0.197-0.043c0.053,0,0.108,0.009,0.163,0.03c0.117,0.043,0.21,0.128,0.263,0.242
		c0.053,0.112,0.057,0.238,0.016,0.357c-0.043,0.119-0.13,0.213-0.242,0.263L4.184,6.662c-0.11,0.053-0.238,0.06-0.357,0.016
		C3.711,6.634,3.615,6.547,3.564,6.436C3.511,6.323,3.504,6.195,3.548,6.078"/>
	<path clip-path="url(#SVGID_2_)" fill="#E74C3C" d="M9.384,11.008c-0.354-0.128-0.736-0.112-1.075,0.046l-2.102,0.979
		c-0.341,0.158-0.597,0.439-0.728,0.792c-0.128,0.354-0.112,0.736,0.046,1.075c0.158,0.338,0.439,0.597,0.794,0.725
		c0.158,0.057,0.32,0.087,0.483,0.087c0.204,0,0.403-0.043,0.59-0.132l2.105-0.977c0.338-0.158,0.597-0.442,0.725-0.794
		c0.128-0.354,0.112-0.734-0.046-1.075C10.017,11.395,9.736,11.137,9.384,11.008 M9.34,12.488c-0.043,0.117-0.128,0.213-0.24,0.264
		l-2.105,0.979c-0.112,0.052-0.24,0.059-0.357,0.013c-0.119-0.041-0.213-0.128-0.265-0.24c-0.053-0.112-0.057-0.24-0.014-0.357
		c0.044-0.119,0.128-0.213,0.241-0.265l2.104-0.979c0.112-0.052,0.24-0.057,0.357-0.013c0.119,0.041,0.213,0.128,0.265,0.24
		C9.38,12.242,9.384,12.369,9.34,12.488"/>
</g>
</svg>
