<?xml version="1.0" encoding="utf-8"?>
<!-- Generator: Adobe Illustrator 17.0.0, SVG Export Plug-In . SVG Version: 6.00 Build 0)  -->
<!DOCTYPE svg PUBLIC "-//W3C//DTD SVG 1.1//EN" "http://www.w3.org/Graphics/SVG/1.1/DTD/svg11.dtd">
<svg version="1.1" id="Слой_1" xmlns="http://www.w3.org/2000/svg" xmlns:xlink="http://www.w3.org/1999/xlink" x="0px" y="0px"
	 width="26.081px" height="23.614px" viewBox="0 0 26.081 23.614" enable-background="new 0 0 26.081 23.614" xml:space="preserve">
<path fill="#E74C3C" d="M13.373,5.638c-3.348,0-6.071,2.723-6.071,6.071c0,3.348,2.723,6.071,6.071,6.071
	c3.348,0,6.071-2.723,6.071-6.071C19.444,8.361,16.72,5.638,13.373,5.638z M13.373,16.912c-2.869,0-5.204-2.334-5.204-5.204
	s2.334-5.204,5.204-5.204c2.869,0,5.204,2.334,5.204,5.204S16.242,16.912,13.373,16.912z"/>
<path fill="#2C3947" d="M23.876,9.107H23c-0.223-0.829-0.552-1.623-0.98-2.366l0.618-0.618c0.228-0.228,0.353-0.531,0.353-0.852
	c0-0.322-0.125-0.625-0.353-0.853l-1.974-1.974c-0.455-0.455-1.249-0.456-1.706,0L18.341,3.06c-0.744-0.428-1.537-0.756-2.366-0.979
	V1.206C15.975,0.541,15.434,0,14.769,0h-2.793c-0.665,0-1.206,0.541-1.206,1.206v0.875c-0.829,0.223-1.622,0.552-2.366,0.98
	L7.786,2.442c-0.456-0.456-1.25-0.455-1.706,0L4.107,4.417C3.879,4.644,3.754,4.948,3.754,5.269c0,0.322,0.125,0.625,0.353,0.853
	l0.618,0.618c-0.428,0.743-0.757,1.537-0.98,2.366H2.87c-0.665,0-1.205,0.541-1.205,1.205v2.792c0,0.665,0.541,1.206,1.205,1.206
	h0.875c0.223,0.829,0.552,1.622,0.98,2.366l-0.618,0.619c-0.228,0.227-0.353,0.53-0.353,0.852c0,0.322,0.125,0.625,0.353,0.853
	l1.974,1.975c0.455,0.455,1.25,0.456,1.705,0l0.618-0.619c0.745,0.428,1.538,0.757,2.366,0.98v0.875
	c0,0.665,0.541,1.206,1.205,1.206h2.792c0.665,0,1.206-0.541,1.206-1.206v-0.875c0.829-0.223,1.622-0.551,2.366-0.98l0.618,0.619
	c0.456,0.456,1.25,0.455,1.705,0L22.639,19c0.228-0.228,0.353-0.531,0.353-0.853c0-0.322-0.125-0.625-0.353-0.852l-0.618-0.619
	c0.428-0.744,0.757-1.538,0.98-2.366h0.875c0.665,0,1.205-0.541,1.205-1.206v-2.793C25.081,9.647,24.54,9.107,23.876,9.107z
	 M24.214,13.105c0,0.186-0.152,0.338-0.338,0.338h-1.558l-0.078,0.335c-0.226,0.97-0.607,1.891-1.133,2.737l-0.182,0.292
	l1.101,1.101c0.132,0.132,0.132,0.347,0,0.479l-1.974,1.975c-0.132,0.132-0.346,0.133-0.479,0l-1.101-1.101l-0.292,0.182
	c-0.846,0.526-1.766,0.908-2.737,1.133l-0.335,0.078v1.557c0,0.186-0.152,0.338-0.338,0.338h-2.793
	c-0.186,0-0.338-0.152-0.338-0.338v-1.557l-0.335-0.078c-0.97-0.226-1.891-0.607-2.737-1.133L8.274,19.26l-1.101,1.101
	c-0.133,0.133-0.347,0.132-0.479,0L4.72,18.387c-0.132-0.132-0.132-0.347,0-0.479l1.101-1.101l-0.182-0.292
	c-0.526-0.846-0.908-1.766-1.133-2.737l-0.078-0.335H2.87c-0.186,0-0.338-0.152-0.338-0.338v-2.793c0-0.186,0.152-0.338,0.338-0.338
	h1.558l0.078-0.335c0.226-0.97,0.607-1.891,1.133-2.737L5.821,6.61L4.72,5.509c-0.132-0.132-0.132-0.347,0-0.479l1.974-1.974
	c0.132-0.132,0.347-0.133,0.479,0l1.101,1.101l0.292-0.182c0.846-0.527,1.766-0.908,2.737-1.133l0.335-0.078V1.206
	c0-0.187,0.152-0.338,0.338-0.338h2.792c0.187,0,0.339,0.152,0.339,0.338v1.558l0.335,0.078c0.97,0.226,1.891,0.606,2.737,1.133
	l0.292,0.182l1.101-1.101c0.133-0.133,0.347-0.132,0.479,0l1.974,1.974c0.132,0.132,0.132,0.347,0,0.479L20.925,6.61l0.182,0.292
	c0.526,0.845,0.908,1.766,1.133,2.737l0.078,0.335h1.558c0.186,0,0.338,0.152,0.338,0.338V13.105z"/>
<path fill="#E74C3C" d="M13.373,7.372c-2.391,0-4.336,1.945-4.336,4.336c0,2.391,1.945,4.336,4.336,4.336
	c2.391,0,4.336-1.945,4.336-4.336C17.709,9.317,15.764,7.372,13.373,7.372z M13.373,15.177c-1.913,0-3.469-1.556-3.469-3.469
	c0-1.913,1.556-3.469,3.469-3.469c1.913,0,3.469,1.556,3.469,3.469C16.842,13.621,15.286,15.177,13.373,15.177z"/>
</svg>
