<?xml version="1.0" encoding="utf-8"?>
<!-- Generator: Adobe Illustrator 17.0.0, SVG Export Plug-In . SVG Version: 6.00 Build 0)  -->
<!DOCTYPE svg PUBLIC "-//W3C//DTD SVG 1.1//EN" "http://www.w3.org/Graphics/SVG/1.1/DTD/svg11.dtd">
<svg version="1.1" id="Слой_1" xmlns="http://www.w3.org/2000/svg" xmlns:xlink="http://www.w3.org/1999/xlink" x="0px" y="0px"
	 width="23.037px" height="21.371px" viewBox="0 0 23.037 21.371" enable-background="new 0 0 23.037 21.371" xml:space="preserve">
<g>
	<g>
		<path fill="#979DA2" d="M22.578,7.619H22.27c-0.3-1.534-1.836-4.236-2.517-5.38c0.319-0.221,0.529-0.592,0.529-1.012
			C20.282,0.551,19.737,0,19.066,0s-1.216,0.551-1.216,1.227c0,0.419,0.21,0.79,0.529,1.012c-0.68,1.144-2.217,3.846-2.517,5.38
			h-0.307c-0.253,0-0.459,0.207-0.459,0.463c0,2.209,1.781,4.007,3.97,4.007s3.97-1.798,3.97-4.007
			C23.037,7.826,22.831,7.619,22.578,7.619z M19.067,0.926c0.164,0,0.298,0.135,0.298,0.301c0,0.166-0.134,0.301-0.298,0.301
			c-0.164,0-0.298-0.135-0.298-0.301C18.768,1.062,18.902,0.926,19.067,0.926z M19.066,2.884c0.777,1.323,1.976,3.527,2.271,4.735
			h-4.539C17.076,6.487,18.155,4.428,19.066,2.884z M19.067,11.163c-1.527,0-2.796-1.138-3.018-2.618h6.036
			C21.862,10.025,20.594,11.163,19.067,11.163z M15.603,18.709H14.39v-1.176c0-0.256-0.205-0.463-0.459-0.463h-1.166V4.131
			c0.3-0.299,0.494-0.708,0.516-1.161l1.94-0.421c0.248-0.054,0.405-0.3,0.352-0.55c-0.053-0.25-0.297-0.409-0.545-0.355
			l-1.945,0.423c-0.292-0.559-0.873-0.941-1.542-0.941c-0.926,0-1.685,0.733-1.738,1.654L4.952,3.832
			C4.731,3.526,4.373,3.327,3.97,3.327c-0.67,0-1.216,0.55-1.216,1.227c0,0.419,0.21,0.79,0.529,1.012
			c-0.68,1.144-2.217,3.846-2.517,5.38H0.459C0.205,10.946,0,11.153,0,11.409c0,2.21,1.781,4.007,3.97,4.007s3.97-1.798,3.97-4.007
			c0-0.256-0.205-0.463-0.459-0.463H7.174c-0.3-1.534-1.836-4.236-2.517-5.38c0.273-0.19,0.466-0.489,0.516-0.835l4.821-1.047
			c0.085,0.166,0.195,0.317,0.325,0.447v12.938H9.154c-0.253,0-0.459,0.207-0.459,0.463v1.176H7.482
			c-0.253,0-0.459,0.207-0.459,0.463v1.736c0,0.256,0.205,0.463,0.459,0.463h8.122c0.253,0,0.459-0.207,0.459-0.463v-1.736
			C16.062,18.916,15.856,18.709,15.603,18.709z M3.97,4.254c0.164,0,0.298,0.135,0.298,0.301c0,0.166-0.134,0.301-0.298,0.301
			S3.672,4.72,3.672,4.554C3.672,4.388,3.806,4.254,3.97,4.254z M3.97,14.49c-1.527,0-2.796-1.138-3.018-2.618h6.036
			C6.766,13.352,5.497,14.49,3.97,14.49z M6.24,10.946H1.702C1.98,9.814,3.059,7.755,3.969,6.211
			C4.746,7.534,5.945,9.737,6.24,10.946z M11.542,2.05c0.454,0,0.824,0.373,0.824,0.831c0,0.458-0.369,0.831-0.824,0.831
			c-0.454,0-0.823-0.373-0.823-0.831C10.719,2.423,11.088,2.05,11.542,2.05z M11.848,4.612v12.458h-0.611V4.612
			c0.099,0.018,0.201,0.028,0.305,0.028C11.646,4.639,11.748,4.629,11.848,4.612z M9.612,17.996h3.859v0.713H9.612V17.996z
			 M15.144,20.445H7.94v-0.81h7.204V20.445z M16.558,2.277c0.032,0,0.064-0.003,0.097-0.01l0.334-0.073
			c0.248-0.054,0.405-0.3,0.352-0.55c-0.053-0.25-0.298-0.409-0.545-0.356L16.462,1.36c-0.248,0.054-0.405,0.3-0.352,0.55
			C16.156,2.128,16.346,2.277,16.558,2.277z"/>
	</g>
</g>
</svg>
