<?xml version="1.0" encoding="utf-8"?>
<!-- Generator: Adobe Illustrator 17.0.0, SVG Export Plug-In . SVG Version: 6.00 Build 0)  -->
<!DOCTYPE svg PUBLIC "-//W3C//DTD SVG 1.1//EN" "http://www.w3.org/Graphics/SVG/1.1/DTD/svg11.dtd">
<svg version="1.1" id="Слой_1" xmlns="http://www.w3.org/2000/svg" xmlns:xlink="http://www.w3.org/1999/xlink" x="0px" y="0px"
	 width="23.037px" height="21.371px" viewBox="0 0 23.037 21.371" enable-background="new 0 0 23.037 21.371" xml:space="preserve">
<g>
	<g>
		<path fill="#FFFFFF" d="M9.055,15.529c-0.921,0-1.671,0.725-1.671,1.615c0,0.891,0.75,1.616,1.671,1.616
			c0.921,0,1.671-0.725,1.671-1.616C10.726,16.254,9.977,15.529,9.055,15.529z M9.055,17.858c-0.407,0-0.738-0.32-0.738-0.714
			c0-0.393,0.331-0.713,0.738-0.713c0.407,0,0.738,0.32,0.738,0.713C9.793,17.538,9.462,17.858,9.055,17.858z M14.917,15.529
			c-0.922,0-1.671,0.725-1.671,1.615c0,0.891,0.75,1.616,1.671,1.616c0.921,0,1.671-0.725,1.671-1.616
			C16.588,16.254,15.838,15.529,14.917,15.529z M14.917,17.858c-0.407,0-0.738-0.32-0.738-0.714c0-0.393,0.331-0.713,0.738-0.713
			c0.407,0,0.738,0.32,0.738,0.713C15.655,17.538,15.324,17.858,14.917,17.858z M8.643,7.925h6.686c0.258,0,0.466-0.202,0.466-0.451
			c0-0.249-0.209-0.451-0.466-0.451H8.643c-0.258,0-0.466,0.202-0.466,0.451C8.176,7.723,8.385,7.925,8.643,7.925z M14.964,9.365
			H9.007c-0.258,0-0.467,0.202-0.467,0.451c0,0.249,0.209,0.451,0.467,0.451h5.958c0.258,0,0.467-0.202,0.467-0.451
			C15.431,9.567,15.222,9.365,14.964,9.365z M19.879,5.013c-0.178-0.211-0.442-0.332-0.723-0.332H4.624L4.33,3.304
			C4.269,3.016,4.066,2.775,3.788,2.658L1.74,1.799C1.504,1.7,1.229,1.805,1.127,2.033C1.024,2.262,1.133,2.528,1.369,2.627
			l2.048,0.859L5.674,14.08c0.089,0.417,0.473,0.72,0.914,0.72h11.176c0.258,0,0.466-0.202,0.466-0.451
			c0-0.249-0.209-0.451-0.466-0.451H6.588l-0.275-1.289h11.537c0.44,0,0.825-0.303,0.914-0.72l1.305-6.124
			C20.126,5.499,20.057,5.225,19.879,5.013z M17.851,11.707H6.121L4.816,5.583h14.339L17.851,11.707z"/>
	</g>
</g>
</svg>
