<?xml version="1.0" encoding="utf-8"?>
<!-- Generator: Adobe Illustrator 17.0.0, SVG Export Plug-In . SVG Version: 6.00 Build 0)  -->
<!DOCTYPE svg PUBLIC "-//W3C//DTD SVG 1.1//EN" "http://www.w3.org/Graphics/SVG/1.1/DTD/svg11.dtd">
<svg version="1.1" id="Слой_1" xmlns="http://www.w3.org/2000/svg" xmlns:xlink="http://www.w3.org/1999/xlink" x="0px" y="0px"
	 width="28.092px" height="19.328px" viewBox="0 0 28.092 19.328" enable-background="new 0 0 28.092 19.328" xml:space="preserve">
<g>
	<path fill="#9CA2A7" d="M22.976,14.133c-0.685,0-1.336,0.271-1.827,0.762c-0.491,0.497-0.765,1.143-0.765,1.836
		c0,0.693,0.269,1.339,0.765,1.836c0.497,0.49,1.142,0.762,1.827,0.762c1.405,0,2.547-1.166,2.547-2.598
		C25.523,15.299,24.38,14.133,22.976,14.133L22.976,14.133z M22.976,18.174c-0.788,0-1.45-0.658-1.45-1.443
		c0-0.785,0.662-1.443,1.45-1.443c0.777,0,1.405,0.647,1.405,1.443C24.38,17.527,23.752,18.174,22.976,18.174L22.976,18.174z
		 M22.976,18.174"/>
	<path fill="#E74F3F" d="M23.638,5.479c-0.103-0.098-0.24-0.15-0.383-0.15h-2.93c-0.314,0-0.571,0.26-0.571,0.577v4.734
		c0,0.317,0.257,0.577,0.571,0.577h4.648c0.314,0,0.571-0.26,0.571-0.577V7.47c0-0.162-0.069-0.317-0.188-0.427L23.638,5.479z
		 M24.403,10.063h-3.506V6.478h2.136l1.37,1.247V10.063z M24.403,10.063"/>
	<path fill="#9CA2A7" d="M9.032,14.133c-0.685,0-1.336,0.271-1.827,0.762c-0.491,0.497-0.765,1.143-0.765,1.836
		c0,0.693,0.268,1.339,0.765,1.836c0.497,0.49,1.142,0.762,1.827,0.762c1.405,0,2.547-1.166,2.547-2.598
		C11.578,15.299,10.436,14.133,9.032,14.133L9.032,14.133z M9.032,18.174c-0.788,0-1.45-0.658-1.45-1.443
		c0-0.785,0.662-1.443,1.45-1.443c0.777,0,1.405,0.647,1.405,1.443C10.436,17.527,9.808,18.174,9.032,18.174L9.032,18.174z
		 M9.032,18.174"/>
	<path fill="#9CA2A7" d="M5.223,14.843H4.075v-1.536c0-0.317-0.257-0.577-0.571-0.577c-0.314,0-0.571,0.26-0.571,0.577v2.113
		c0,0.317,0.257,0.577,0.571,0.577h1.719c0.314,0,0.571-0.26,0.571-0.577C5.794,15.103,5.537,14.843,5.223,14.843L5.223,14.843z
		 M5.223,14.843"/>
	<path fill="#E74F3F" d="M8.118,11.696c0-0.317-0.257-0.577-0.571-0.577H0.621c-0.314,0-0.571,0.26-0.571,0.577
		c0,0.318,0.257,0.577,0.571,0.577h6.926C7.861,12.274,8.118,12.02,8.118,11.696L8.118,11.696z M8.118,11.696"/>
	<path fill="#E74F3F" d="M1.78,9.612l6.927,0.041c0.314,0,0.571-0.254,0.577-0.572c0.006-0.323-0.251-0.583-0.565-0.583L1.791,8.458
		H1.786c-0.314,0-0.571,0.254-0.571,0.572C1.209,9.353,1.466,9.612,1.78,9.612L1.78,9.612z M1.78,9.612"/>
	<path fill="#E74F3F" d="M2.945,6.991h6.927c0.314,0,0.571-0.26,0.571-0.577c0-0.317-0.257-0.577-0.571-0.577H2.945
		c-0.314,0-0.571,0.26-0.571,0.577C2.374,6.732,2.631,6.991,2.945,6.991L2.945,6.991z M2.945,6.991"/>
	<path fill="#9CA2A7" d="M27.881,6.212l-4.089-3.423c-0.103-0.087-0.228-0.133-0.366-0.133h-4.808V0.577
		C18.619,0.26,18.362,0,18.048,0H3.504C3.19,0,2.933,0.26,2.933,0.577v4.226c0,0.318,0.257,0.577,0.571,0.577
		c0.314,0,0.571-0.26,0.571-0.577V1.155h13.407v13.688H12.8c-0.314,0-0.571,0.26-0.571,0.577c0,0.317,0.257,0.577,0.571,0.577h6.972
		c0.314,0,0.571-0.26,0.571-0.577c0-0.317-0.257-0.577-0.571-0.577h-1.148V3.81h4.602l3.723,3.117l-0.04,7.903h-0.594
		c-0.314,0-0.571,0.26-0.571,0.577c0,0.318,0.257,0.577,0.571,0.577h1.159c0.314,0,0.571-0.254,0.571-0.571l0.046-8.752
		C28.086,6.489,28.012,6.322,27.881,6.212L27.881,6.212z M27.881,6.212"/>
</g>
</svg>
