<svg xmlns="http://www.w3.org/2000/svg" xmlns:xlink="http://www.w3.org/1999/xlink" width="22" height="22" viewBox="0 0 22 22">
  <defs>
    <style>
      .cls-1 {
        fill-rule: evenodd;
        opacity: 0.4;
        filter: url(#filter);
      }
    </style>
    <filter id="filter" x="867" y="593" width="22" height="22" filterUnits="userSpaceOnUse">
      <feFlood result="flood" flood-color="#545454"/>
      <feComposite result="composite" operator="in" in2="SourceGraphic"/>
      <feBlend result="blend" in2="SourceGraphic"/>
    </filter>
  </defs>
  <path id="icon" class="cls-1" d="M889,608.2s0-.01,0-0.015v0a0.229,0.229,0,0,0,0-.025v-0.011a0.155,0.155,0,0,0,0-.021s0-.01,0-0.015a0.124,0.124,0,0,1,0-.016l-0.006-.019s0-.009,0-0.013l-0.009-.021s0,0,0,0l-3.769-8.293v-1.087h0.023a0.738,0.738,0,0,0,.737-0.737v-0.056a0.734,0.734,0,0,0-.619-0.727l-6.224-1v-0.638a1.5,1.5,0,1,0-2.233,0v0.6l-6.227,1.038a0.734,0.734,0,0,0-.615.727v0.057a0.737,0.737,0,0,0,.736.737H870.8v1.087l-3.769,8.293a0,0,0,0,0,0,0,0.189,0.189,0,0,0-.009.021s0,0.008,0,.013l-0.006.019s0,0.01,0,.016l0,0.015,0,0.021a0.045,0.045,0,0,1,0,.011c0,0.009,0,.017,0,0.025V608.2a0.049,0.049,0,0,1,0,.012c0.022,1.466,1.839,2.61,4.157,2.61s4.134-1.144,4.156-2.61c0,0,0-.008,0-0.012v-0.018c0-.008,0-0.016,0-0.025s0-.008,0-0.011l0-.021,0-.015c0-.006,0-0.011,0-0.016s0-.013,0-0.019,0-.009,0-0.013l-0.008-.021,0,0-3.769-8.293v-1.087h5.369V606.4a0.736,0.736,0,0,0-.38.644v5.25l-2.257.7a1.113,1.113,0,0,0-.784,1.066v0.581a0.357,0.357,0,0,0,.356.357h8.363a0.357,0.357,0,0,0,.357-0.357v-0.581a1.113,1.113,0,0,0-.784-1.066l-2.257-.7v-5.25a0.735,0.735,0,0,0-.381-0.644v-7.743h5.37v1.087l-3.769,8.293,0,0a0.18,0.18,0,0,0-.008.021s0,0.008,0,.013a0.105,0.105,0,0,0,0,.019,0.075,0.075,0,0,0,0,.016l0,0.015,0,0.021a0.037,0.037,0,0,0,0,.011,0.218,0.218,0,0,0,0,.025s0,0,0,0,0,0.01,0,.015a0.049,0.049,0,0,0,0,.012c0.022,1.466,1.839,2.61,4.156,2.61s4.135-1.144,4.157-2.61V608.2Zm-17.841-7.516,3.247,7.145h-6.5Zm0,9.425c-1.651,0-3.074-.688-3.383-1.567h6.765C874.231,609.417,872.808,610.105,871.158,610.105Zm7.626-3.064V612.2h-1.568v-5.155a0.024,0.024,0,0,1,.024-0.024h1.52A0.024,0.024,0,0,1,878.784,607.041ZM877.6,606.3V595.937a1.485,1.485,0,0,0,.808,0V606.3H877.6Zm0.4-12.592a0.784,0.784,0,1,1-.784.784A0.785,0.785,0,0,1,878,593.712Zm-7.223,4.229a0.023,0.023,0,0,1-.023-0.024V597.86a0.024,0.024,0,0,1,.02-0.024l6.109-1.018v1.123h-6.106Zm11.048,16.121v0.225h-7.65v-0.225a0.4,0.4,0,0,1,.283-0.386l2.456-.767h2.172l2.456,0.767A0.4,0.4,0,0,1,881.825,614.062Zm-2.709-17.21,6.11,0.986a0.023,0.023,0,0,1,.02.023v0.056a0.024,0.024,0,0,1-.024.024h-6.106v-1.089Zm5.726,3.828,3.248,7.145h-6.5Zm0,9.425c-1.65,0-3.074-.688-3.383-1.567h6.766C887.916,609.417,886.492,610.105,884.842,610.105Z" transform="translate(-867 -593)"/>
</svg>
