<?xml version="1.0" encoding="utf-8"?>
<!-- Generator: Adobe Illustrator 17.0.0, SVG Export Plug-In . SVG Version: 6.00 Build 0)  -->
<!DOCTYPE svg PUBLIC "-//W3C//DTD SVG 1.1//EN" "http://www.w3.org/Graphics/SVG/1.1/DTD/svg11.dtd">
<svg version="1.1" id="Слой_1" xmlns="http://www.w3.org/2000/svg" xmlns:xlink="http://www.w3.org/1999/xlink" x="0px" y="0px"
	 width="27px" height="28.8px" viewBox="0 0 27 28.8" enable-background="new 0 0 27 28.8" xml:space="preserve">
<path fill="#E74C3C" d="M11.325,21.241c-1.308,0-2.373,0.996-2.373,2.221c0,1.224,1.065,2.221,2.373,2.221
	c1.309,0,2.373-0.996,2.373-2.221C13.698,22.237,12.633,21.241,11.325,21.241z M11.325,24.443c-0.578,0-1.048-0.44-1.048-0.981
	c0-0.541,0.47-0.981,1.048-0.981c0.578,0,1.048,0.44,1.048,0.981C12.373,24.003,11.903,24.443,11.325,24.443z"/>
<path fill="#E74C3C" d="M19.649,21.241c-1.308,0-2.373,0.996-2.373,2.221c0,1.224,1.065,2.221,2.373,2.221
	c1.309,0,2.373-0.996,2.373-2.221C22.022,22.237,20.958,21.241,19.649,21.241z M19.649,24.443c-0.578,0-1.048-0.44-1.048-0.981
	c0-0.541,0.47-0.981,1.048-0.981c0.578,0,1.048,0.44,1.048,0.981C20.697,24.003,20.227,24.443,19.649,24.443z"/>
<path fill="#E74C3C" d="M20.233,9.55h-9.494c-0.366,0-0.663,0.278-0.663,0.62c0,0.342,0.297,0.62,0.663,0.62h9.494
	c0.366,0,0.662-0.277,0.662-0.62C20.896,9.828,20.599,9.55,20.233,9.55z"/>
<path fill="#E74C3C" d="M19.717,12.769h-8.461c-0.366,0-0.663,0.278-0.663,0.62c0,0.342,0.297,0.62,0.663,0.62h8.461
	c0.366,0,0.662-0.278,0.662-0.62C20.379,13.047,20.082,12.769,19.717,12.769z"/>
<path fill="#2C3947" d="M26.696,6.788c-0.253-0.29-0.627-0.457-1.027-0.457H5.032L4.615,4.438C4.528,4.043,4.24,3.711,3.845,3.551
	L0.937,2.37C0.601,2.233,0.211,2.377,0.065,2.691c-0.146,0.315,0.008,0.68,0.344,0.816l2.908,1.181l3.206,14.561
	c0.126,0.573,0.672,0.989,1.298,0.989h15.872c0.366,0,0.663-0.278,0.663-0.62s-0.297-0.62-0.663-0.62H7.821l-0.39-1.771h16.385
	c0.626,0,1.171-0.416,1.298-0.99l1.853-8.417C27.048,7.454,26.949,7.078,26.696,6.788z M23.816,15.988H7.158L5.305,7.571h20.364
	L23.816,15.988z"/>
</svg>
