<?xml version="1.0" encoding="utf-8"?>
<!-- Generator: Adobe Illustrator 17.0.0, SVG Export Plug-In . SVG Version: 6.00 Build 0)  -->
<!DOCTYPE svg PUBLIC "-//W3C//DTD SVG 1.1//EN" "http://www.w3.org/Graphics/SVG/1.1/DTD/svg11.dtd">
<svg version="1.1" id="Слой_1" xmlns="http://www.w3.org/2000/svg" xmlns:xlink="http://www.w3.org/1999/xlink" x="0px" y="0px"
	 width="46.844px" height="47.046px" viewBox="0 0 46.844 47.046" enable-background="new 0 0 46.844 47.046" xml:space="preserve">
<g>
	<defs>
		<rect id="SVGID_1_" y="0" width="46.844" height="47.046"/>
	</defs>
	<clipPath id="SVGID_2_">
		<use xlink:href="#SVGID_1_"  overflow="visible"/>
	</clipPath>
	<path clip-path="url(#SVGID_2_)" fill="#2C3947" d="M40.617,36.054V2.398h3.078c0.664,0,1.2-0.535,1.2-1.199
		c0-0.66-0.536-1.199-1.2-1.199h-8.554c-0.664,0-1.2,0.539-1.2,1.199c0,0.664,0.536,1.199,1.2,1.199h3.078v33.656H40.617z"/>
	<path clip-path="url(#SVGID_2_)" fill="#2C3947" d="M14.738,42.238c-0.601-3.492-3.648-6.164-7.312-6.164
		C3.332,36.074,0,39.406,0,43.5c0,0.664,0.535,1.203,1.199,1.203c0.664,0,1.199-0.539,1.199-1.203c0-2.77,2.258-5.028,5.028-5.028
		c2.773,0,5.027,2.258,5.027,5.028c0,0.664,0.539,1.203,1.199,1.203c0.133,0,0.254-0.028,0.371-0.067l19.165,0.067h0.003
		c0.082,0,0.164-0.008,0.243-0.028c0.023-0.004,0.046-0.011,0.07-0.019c0.051-0.016,0.105-0.027,0.152-0.051
		c0.024-0.008,0.043-0.019,0.063-0.031c0.047-0.024,0.097-0.047,0.14-0.078c0.02-0.012,0.036-0.028,0.051-0.039
		c0.047-0.036,0.09-0.067,0.129-0.106c0.02-0.023,0.035-0.047,0.055-0.07c0.031-0.035,0.066-0.07,0.09-0.11
		c0.019-0.027,0.035-0.058,0.05-0.089c0.02-0.039,0.043-0.075,0.063-0.114c0.015-0.035,0.023-0.078,0.035-0.117
		c0.012-0.035,0.027-0.07,0.035-0.105c0.008-0.043,0.008-0.082,0.012-0.125c0.004-0.039,0.012-0.078,0.012-0.117V43.5
		c0-2.77,2.254-5.028,5.027-5.028c2.77,0,5.023,2.258,5.023,5.028c0,0.664,0.539,1.199,1.204,1.199c0.66,0,1.199-0.535,1.199-1.199
		c0-4.094-3.332-7.426-7.426-7.426c-3.684,0-6.742,2.699-7.32,6.222L14.738,42.238z"/>
	<path clip-path="url(#SVGID_2_)" fill="#E74C3C" d="M11.035,43.437c0-1.992-1.617-3.609-3.609-3.609
		c-1.988,0-3.61,1.617-3.61,3.609c0,1.988,1.622,3.609,3.61,3.609C9.418,47.046,11.035,45.425,11.035,43.437 M6.219,43.437
		c0-0.668,0.543-1.211,1.207-1.211c0.668,0,1.211,0.543,1.211,1.211s-0.543,1.207-1.211,1.207
		C6.762,44.644,6.219,44.105,6.219,43.437"/>
	<path clip-path="url(#SVGID_2_)" fill="#E74C3C" d="M43.027,43.437c0-1.992-1.617-3.609-3.609-3.609
		c-1.988,0-3.609,1.617-3.609,3.609c0,1.988,1.621,3.609,3.609,3.609C41.41,47.046,43.027,45.425,43.027,43.437 M38.207,43.437
		c0-0.668,0.543-1.211,1.211-1.211s1.211,0.543,1.211,1.211s-0.543,1.207-1.211,1.207S38.207,44.105,38.207,43.437"/>
</g>
</svg>
