<?xml version="1.0" encoding="utf-8"?>
<!-- Generator: Adobe Illustrator 17.0.0, SVG Export Plug-In . SVG Version: 6.00 Build 0)  -->
<!DOCTYPE svg PUBLIC "-//W3C//DTD SVG 1.1//EN" "http://www.w3.org/Graphics/SVG/1.1/DTD/svg11.dtd">
<svg version="1.1" id="Слой_1" xmlns="http://www.w3.org/2000/svg" xmlns:xlink="http://www.w3.org/1999/xlink" x="0px" y="0px"
	 width="16.86px" height="19.899px" viewBox="0 0 16.86 19.899" enable-background="new 0 0 16.86 19.899" xml:space="preserve">
<g>
	<g>
		<path fill="#E74F3F" d="M8.358,10.709h0.131c1.203-0.02,2.176-0.443,2.894-1.252c1.58-1.782,1.318-4.835,1.289-5.127
			c-0.103-2.188-1.137-3.234-1.991-3.723c-0.636-0.365-1.379-0.562-2.208-0.579h-0.07c-0.456,0-1.35,0.074-2.208,0.562
			C5.333,1.08,4.282,2.126,4.179,4.33C4.151,4.622,3.888,7.675,5.468,9.457C6.182,10.266,7.155,10.688,8.358,10.709L8.358,10.709z
			 M5.275,4.433c0-0.012,0.004-0.025,0.004-0.033c0.136-2.943,2.225-3.259,3.12-3.259h0.049c1.108,0.025,2.992,0.476,3.12,3.259
			c0,0.012,0,0.025,0.004,0.033c0.004,0.029,0.291,2.82-1.014,4.289c-0.517,0.583-1.207,0.87-2.114,0.878H8.403
			C7.5,9.592,6.806,9.305,6.293,8.722C4.992,7.261,5.271,4.458,5.275,4.433L5.275,4.433z M5.275,4.433"/>
		<path fill="#9CA2A7" d="M16.859,15.774v-0.012c0-0.033-0.004-0.066-0.004-0.103c-0.024-0.813-0.078-2.713-1.859-3.321
			c-0.012-0.004-0.029-0.008-0.041-0.012c-1.851-0.472-3.39-1.539-3.407-1.551c-0.25-0.177-0.595-0.115-0.772,0.135
			c-0.177,0.251-0.115,0.595,0.135,0.772c0.07,0.049,1.704,1.186,3.748,1.712c0.956,0.341,1.063,1.363,1.092,2.299
			c0,0.037,0,0.07,0.004,0.103c0.004,0.369-0.021,0.94-0.086,1.268c-0.665,0.378-3.271,1.683-7.236,1.683
			c-3.948,0-6.571-1.309-7.24-1.687C1.126,16.73,1.097,16.16,1.105,15.79c0-0.033,0.004-0.066,0.004-0.103
			c0.029-0.936,0.136-1.958,1.092-2.299c2.044-0.525,3.678-1.666,3.747-1.712c0.25-0.176,0.312-0.521,0.136-0.772
			c-0.177-0.25-0.521-0.312-0.772-0.136c-0.016,0.012-1.547,1.079-3.407,1.552c-0.016,0.004-0.029,0.008-0.041,0.012
			c-1.781,0.612-1.835,2.512-1.859,3.321c0,0.037,0,0.07-0.004,0.103v0.012c-0.004,0.213-0.008,1.309,0.209,1.859
			c0.041,0.107,0.115,0.197,0.213,0.259c0.123,0.082,3.074,1.962,8.012,1.962s7.889-1.884,8.012-1.962
			c0.094-0.062,0.172-0.152,0.213-0.259C16.867,17.083,16.863,15.987,16.859,15.774L16.859,15.774z M16.859,15.774"/>
	</g>
</g>
</svg>
