<?xml version="1.0" encoding="utf-8"?>
<!-- Generator: Adobe Illustrator 17.0.0, SVG Export Plug-In . SVG Version: 6.00 Build 0)  -->
<!DOCTYPE svg PUBLIC "-//W3C//DTD SVG 1.1//EN" "http://www.w3.org/Graphics/SVG/1.1/DTD/svg11.dtd">
<svg version="1.1" id="Слой_1" xmlns="http://www.w3.org/2000/svg" xmlns:xlink="http://www.w3.org/1999/xlink" x="0px" y="0px"
	 width="33.392px" height="19.899px" viewBox="0 0 33.392 19.899" enable-background="new 0 0 33.392 19.899" xml:space="preserve">
<path fill="#9CA2A7" d="M12.143,13.779c0-0.455-0.304-0.759-0.759-0.759H5.312c-0.455,0-0.759,0.304-0.759,0.759
	s0.304,0.759,0.759,0.759h6.071C11.839,14.538,12.143,14.234,12.143,13.779z"/>
<path fill="#9CA2A7" d="M9.866,9.984c0-0.455-0.304-0.759-0.759-0.759H3.036c-0.455,0-0.759,0.304-0.759,0.759
	s0.304,0.759,0.759,0.759h6.071C9.562,10.743,9.866,10.439,9.866,9.984z"/>
<path fill="#9CA2A7" d="M7.589,6.189c0-0.455-0.304-0.759-0.759-0.759H0.759C0.304,5.431,0,5.734,0,6.189
	c0,0.455,0.304,0.759,0.759,0.759H6.83C7.286,6.948,7.589,6.645,7.589,6.189z"/>
<path fill="#E74F3F" d="M29.143,3.306l-8.045,6.147c-0.835,0.607-1.973,0.607-2.808,0l-8.045-6.147
	C9.942,3.078,9.411,3.078,9.183,3.457C8.955,3.761,8.955,4.292,9.335,4.52l8.12,6.147c0.683,0.531,1.518,0.759,2.277,0.759
	c0.759,0,1.67-0.228,2.277-0.759l8.045-6.147c0.304-0.228,0.379-0.759,0.152-1.062S29.446,3.078,29.143,3.306z"/>
<path fill="#9CA2A7" d="M31.116,0.118H6.83c-0.455,0-0.759,0.304-0.759,0.759S6.375,1.636,6.83,1.636h24.285
	c0.455,0,0.759,0.304,0.759,0.759v15.178c0,0.455-0.304,0.759-0.759,0.759H6.83c-0.455,0-0.759,0.304-0.759,0.759
	c0,0.455,0.304,0.759,0.759,0.759h24.285c1.29,0,2.277-0.987,2.277-2.277V2.395C33.392,1.105,32.406,0.118,31.116,0.118z"/>
<path fill="#E74F3F" d="M24.513,10.971c-0.304,0.304-0.304,0.759,0,1.062l4.554,4.554c0.152,0.152,0.379,0.228,0.531,0.228
	c0.152,0,0.379-0.076,0.531-0.228c0.304-0.304,0.304-0.759,0-1.062l-4.554-4.554C25.272,10.667,24.817,10.667,24.513,10.971z"/>
</svg>
