


<svg version="1.1" id="Слой_1" xmlns="http://www.w3.org/2000/svg" xmlns:xlink="http://www.w3.org/1999/xlink" x="0px" y="0px"
	 width="27px" height="28.8px" viewBox="0 0 27 28.8" enable-background="new 0 0 27 28.8" xml:space="preserve">
<path fill="#2C3947" d="M23,1.8h-4.5c0,0-0.001,0-0.001,0c-0.411-0.546-1.064-0.9-1.799-0.9h-1.147C15.236,0.351,14.646,0,14,0
	s-1.236,0.351-1.553,0.9H11.3c-0.735,0-1.388,0.354-1.799,0.9c0,0-0.001,0-0.001,0H5c-1.241,0-2.25,1.009-2.25,2.25v22.5
	c0,1.241,1.009,2.25,2.25,2.25h18c1.241,0,2.25-1.009,2.25-2.25V4.05C25.25,2.809,24.241,1.8,23,1.8z M9.95,3.15
	c0-0.744,0.606-1.35,1.35-1.35h1.433c0.19,0,0.36-0.12,0.424-0.299C13.284,1.142,13.623,0.9,14,0.9s0.716,0.241,0.843,0.601
	C14.907,1.68,15.077,1.8,15.267,1.8H16.7c0.744,0,1.35,0.606,1.35,1.35V4.5h-8.1V3.15z M24.35,26.55c0,0.744-0.606,1.35-1.35,1.35H5
	c-0.744,0-1.35-0.606-1.35-1.35V4.05C3.65,3.306,4.256,2.7,5,2.7h4.095C9.066,2.846,9.05,2.996,9.05,3.15v1.8
	c0,0.249,0.202,0.45,0.45,0.45h9c0.248,0,0.45-0.201,0.45-0.45v-1.8c0-0.154-0.016-0.305-0.045-0.45H23
	c0.744,0,1.35,0.606,1.35,1.35V26.55z"/>
<path fill="#2C3947" d="M23,3.6h-2.7c-0.249,0-0.45,0.201-0.45,0.45c0,0.249,0.201,0.45,0.45,0.45h2.25v21.6H5.45V4.5H7.7
	c0.248,0,0.45-0.201,0.45-0.45c0-0.248-0.202-0.45-0.45-0.45H5c-0.249,0-0.45,0.201-0.45,0.45v22.5C4.55,26.799,4.751,27,5,27h18
	c0.248,0,0.45-0.201,0.45-0.45V4.05C23.45,3.802,23.249,3.6,23,3.6z"/>
<path fill="#2C3947" d="M14,1.8c-0.119,0-0.235,0.048-0.318,0.132c-0.084,0.084-0.132,0.2-0.132,0.319
	c0,0.118,0.048,0.234,0.132,0.318C13.765,2.652,13.881,2.7,14,2.7c0.118,0,0.235-0.048,0.318-0.132
	c0.084-0.084,0.132-0.2,0.132-0.318c0-0.119-0.048-0.235-0.132-0.319C14.235,1.848,14.118,1.8,14,1.8z"/>
<path fill="#E74C3C" d="M6.932,10.482c-0.176,0.176-0.176,0.461,0,0.636l1.35,1.35C8.37,12.556,8.485,12.6,8.6,12.6
	c0.115,0,0.23-0.044,0.318-0.132l2.25-2.25c0.176-0.176,0.176-0.461,0-0.636c-0.176-0.176-0.461-0.176-0.636,0L8.6,11.514
	l-1.032-1.032C7.392,10.306,7.108,10.306,6.932,10.482z"/>
<path fill="#E74C3C" d="M11.168,14.532c-0.176-0.176-0.461-0.176-0.636,0L8.6,16.464l-1.032-1.032c-0.176-0.176-0.461-0.176-0.636,0
	c-0.176,0.176-0.176,0.461,0,0.636l1.35,1.35C8.37,17.506,8.485,17.55,8.6,17.55s0.23-0.044,0.318-0.132l2.25-2.25
	C11.344,14.993,11.344,14.708,11.168,14.532z"/>
<path fill="#E74C3C" d="M10.532,19.482L8.6,21.414l-1.032-1.032c-0.176-0.176-0.461-0.176-0.636,0c-0.176,0.176-0.176,0.461,0,0.636
	l1.35,1.35C8.37,22.456,8.485,22.5,8.6,22.5s0.23-0.044,0.318-0.132l2.25-2.25c0.176-0.176,0.176-0.461,0-0.636
	C10.993,19.306,10.708,19.306,10.532,19.482z"/>
<path fill="#E74C3C" d="M13.1,11.25h7.65c0.248,0,0.45-0.201,0.45-0.45c0-0.249-0.201-0.45-0.45-0.45H13.1
	c-0.249,0-0.45,0.201-0.45,0.45C12.65,11.049,12.851,11.25,13.1,11.25z"/>
<path fill="#E74C3C" d="M13.1,16.2h7.65c0.248,0,0.45-0.201,0.45-0.45c0-0.248-0.201-0.45-0.45-0.45H13.1
	c-0.249,0-0.45,0.202-0.45,0.45C12.65,15.999,12.851,16.2,13.1,16.2z"/>
<path fill="#E74C3C" d="M13.1,21.15h7.65c0.248,0,0.45-0.202,0.45-0.45c0-0.248-0.201-0.45-0.45-0.45H13.1
	c-0.249,0-0.45,0.201-0.45,0.45C12.65,20.949,12.851,21.15,13.1,21.15z"/>
</svg>
