<svg xmlns="http://www.w3.org/2000/svg" width="41.656" height="41.218" viewBox="0 0 41.656 41.218">
  <defs>
    <style>
      .cls-1 {
        fill-rule: evenodd;
      }
    </style>
  </defs>
  <path class="cls-1" d="M269.865,214.4H258.517a0.828,0.828,0,0,0-.83.826v11.3a0.829,0.829,0,0,0,.83.827h11.348a0.828,0.828,0,0,0,.83-0.827v-11.3A0.828,0.828,0,0,0,269.865,214.4Zm-0.83,1.654v3.168l-3.182-3.168h3.182Zm-9.687,9.645v-3.19l3.2,3.19h-3.2Zm9.687,0H264.9l-5.553-5.53v-2.947l5.195,5.173a0.829,0.829,0,1,0,1.174-1.17l-5.195-5.173H263.5l5.531,5.508V225.7Zm-1.176-2.34-0.232-.231a0.834,0.834,0,0,0-1.175,0,0.825,0.825,0,0,0,0,1.17l0.231,0.23A0.829,0.829,0,0,0,267.859,223.36Zm15.551-15.709h-7.433a0.829,0.829,0,0,0-.83.827v18.129a0.829,0.829,0,0,0,.83.827h7.433a0.829,0.829,0,0,0,.83-0.827V208.478A0.829,0.829,0,0,0,283.41,207.651Zm-6.6,1.654h2.355l3.417,3.4v2.7l-5.746-5.723a0.275,0.275,0,0,0-.026-0.022v-0.36Zm0,16.475v-3.27l3.284,3.27h-3.284Zm5.772,0H282.44l-5.632-5.609v-2.947l5.771,5.748v2.808h0Zm0-5.147-5.746-5.723-0.026-.023V212l5.772,5.748v2.884Zm0-10.264-1.068-1.064h1.068v1.064Zm-12.714-13.281H258.517a0.829,0.829,0,0,0-.83.827v11.3a0.829,0.829,0,0,0,.83.827h11.348a0.828,0.828,0,0,0,.83-0.827v-11.3A0.829,0.829,0,0,0,269.865,197.088Zm-0.83,1.654v3.169l-3.182-3.169h3.182Zm-9.687,9.646V205.2l3.2,3.19h-3.2Zm5.553,0-5.553-5.529v-2.947l8.512,8.476H264.9Zm4.134-1.169-8.513-8.477H263.5l5.531,5.508v2.969Zm19.179,21.5h-0.971V205.557a0.829,0.829,0,0,0-.83-0.827H273.744v-9.837a0.828,0.828,0,0,0-.83-0.826H255.483a0.829,0.829,0,0,0-.831.826v33.83h-0.784V204.858a3.572,3.572,0,0,0-3.576-3.561h-1.716a0.827,0.827,0,1,0,0,1.654h1.716a1.913,1.913,0,0,1,1.915,1.907v22.933a3.815,3.815,0,1,0,2.819,3.681,3.784,3.784,0,0,0-.162-1.1h26.323a3.231,3.231,0,0,0-.452,1.651,3.276,3.276,0,0,0,6.551,0,3.231,3.231,0,0,0-.452-1.651h1.381A0.827,0.827,0,1,0,288.214,228.722Zm-37.021,4.913a2.164,2.164,0,1,1,2.172-2.163A2.17,2.17,0,0,1,251.193,233.635Zm20.89-4.913h-15.77V213.048h15.77v15.674Zm0-23.165V211.4h-15.77V195.72h15.77v9.837Zm1.661,23.165V206.384h11.838v22.338H273.744Zm10.266,4.913a1.608,1.608,0,1,1,1.615-1.608A1.613,1.613,0,0,1,284.01,233.635Z" transform="translate(-247.375 -194.063)"/>
</svg>
