<?xml version="1.0" encoding="iso-8859-1"?>
<!-- Generator: Adobe Illustrator 19.0.1, SVG Export Plug-In . SVG Version: 6.00 Build 0)  -->
<svg version="1.1" id="&#x421;&#x43B;&#x43E;&#x439;_3"
	 xmlns="http://www.w3.org/2000/svg" xmlns:xlink="http://www.w3.org/1999/xlink" x="0px" y="0px" viewBox="-49 141 41.667 43.153"
	 style="enable-background:new -49 141 41.667 43.153;" xml:space="preserve">
<g>
	<path style="fill:#203548;" d="M-10.794,177.562h-11.833h-1.66H-40.05h-1.66h-0.318h-0.466v-23.954
		c0-1.971-1.603-3.574-3.574-3.574h-1.715c-0.458,0-0.83,0.372-0.83,0.83s0.372,0.83,0.83,0.83h1.715
		c1.056,0,1.914,0.859,1.914,1.914v23.02c-0.323-0.089-0.663-0.137-1.014-0.137c-2.113,0-3.832,1.719-3.832,3.832
		s1.719,3.832,3.832,3.832c2.113,0,3.832-1.719,3.832-3.832c0-0.382-0.057-0.751-0.162-1.1h26.311
		c-0.287,0.486-0.452,1.053-0.452,1.657c0,1.805,1.469,3.274,3.274,3.274c1.805,0,3.274-1.469,3.274-3.274
		c0-0.604-0.165-1.171-0.452-1.657h1.38c0.458,0,0.83-0.372,0.83-0.83s-0.372-0.83-0.83-0.83h-0.971H-10.794z M-45.168,182.493
		c-1.197,0-2.172-0.974-2.172-2.171c0-1.197,0.974-2.172,2.172-2.172c1.197,0,2.172,0.974,2.172,2.172
		C-42.997,181.519-43.971,182.493-45.168,182.493z M-12.366,182.493c-0.89,0-1.614-0.724-1.614-1.614
		c0-0.89,0.724-1.614,1.614-1.614s1.614,0.724,1.614,1.614C-10.751,181.769-11.475,182.493-12.366,182.493z"/>
	<path style="fill:#FF4B3A;" d="M-26.505,163.186h-11.342c-0.458,0-0.83,0.372-0.83,0.83v11.342c0,0.458,0.372,0.83,0.83,0.83
		h11.342c0.458,0,0.83-0.372,0.83-0.83v-11.342C-25.675,163.558-26.046,163.186-26.505,163.186z M-27.335,164.846v3.18l-3.18-3.18
		H-27.335z M-37.017,174.529v-3.203l3.203,3.203H-37.017z M-27.335,174.529h-4.132v0l-5.55-5.55v-2.958l5.193,5.193
		c0.162,0.162,0.375,0.243,0.587,0.243c0.212,0,0.425-0.081,0.587-0.243c0.324-0.324,0.324-0.85,0-1.174l-5.192-5.193h2.98
		l5.528,5.528V174.529z"/>
	<path style="fill:#FF4B3A;" d="M-29.684,173.353c0.162,0.162,0.374,0.243,0.587,0.243c0.212,0,0.425-0.081,0.587-0.243
		c0.324-0.324,0.324-0.85,0-1.174l-0.232-0.231c-0.324-0.324-0.85-0.324-1.174,0c-0.324,0.324-0.324,0.85,0,1.174L-29.684,173.353z"
		/>
	<path style="fill:#FF4B3A;" d="M-12.966,156.411h-7.429c-0.458,0-0.83,0.372-0.83,0.83v18.197c0,0.458,0.372,0.83,0.83,0.83h7.429
		c0.458,0,0.83-0.372,0.83-0.83v-18.197C-12.136,156.783-12.507,156.411-12.966,156.411z M-19.565,158.071h2.354l3.416,3.416v2.712
		l-5.744-5.744c-0.008-0.008-0.017-0.015-0.025-0.023V158.071z M-19.565,174.609v-3.282l0,0h0v0l3.282,3.282H-19.565z
		 M-13.796,174.609h-0.139l-5.63-5.63v-2.958l5.769,5.769V174.609z M-13.796,169.442l-5.744-5.744
		c-0.008-0.008-0.017-0.015-0.025-0.023v-2.897l5.769,5.769V169.442z M-13.796,159.14l-1.068-1.068h1.068V159.14z"/>
	<path style="fill:#FF4B3A;" d="M-26.505,145.809h-11.342c-0.458,0-0.83,0.372-0.83,0.83v11.342c0,0.458,0.372,0.83,0.83,0.83
		h11.342c0.458,0,0.83-0.372,0.83-0.83v-11.342C-25.675,146.181-26.046,145.809-26.505,145.809z M-27.335,147.469v3.18l-3.18-3.18
		H-27.335z M-37.017,157.152v-3.203l3.203,3.203H-37.017z M-31.467,157.151l-5.55-5.55v-2.958l8.509,8.509H-31.467z
		 M-27.335,155.978l-8.509-8.509h2.98l5.528,5.528V155.978z"/>
	<path style="fill:#FF4B3A;" d="M-40.05,161.829h15.763v15.733h1.66V155.14h11.833v22.422h1.66V154.31c0-0.458-0.372-0.83-0.83-0.83
		h-12.663v-9.874c0-0.458-0.372-0.83-0.83-0.83H-40.88c-0.458,0-0.83,0.372-0.83,0.83v33.957h1.66V161.829z M-40.05,144.436h15.763
		v9.874v5.859H-40.05V144.436z"/>
</g>
</svg>
