
<svg version="1.1" id="Слой_1" xmlns="http://www.w3.org/2000/svg" xmlns:xlink="http://www.w3.org/1999/xlink" x="0px" y="0px"
	 width="27px" height="27px" viewBox="0 0 27 27" enable-background="new 0 0 27 27" xml:space="preserve">
<path fill="#2C3947" d="M26.999,18.65c0-0.006,0.001-0.012,0.001-0.019c0-0.001,0-0.003,0-0.004c0-0.01-0.001-0.02-0.001-0.03
	c0-0.005-0.001-0.01-0.001-0.014c-0.001-0.008-0.002-0.017-0.004-0.026c-0.001-0.006-0.002-0.012-0.003-0.018
	c-0.001-0.007-0.003-0.014-0.005-0.02c-0.002-0.008-0.004-0.016-0.007-0.023c-0.002-0.005-0.004-0.01-0.005-0.015
	c-0.003-0.009-0.007-0.018-0.01-0.026c0-0.002-0.001-0.003-0.002-0.004L22.335,8.273V6.939h0.029c0.498,0,0.904-0.405,0.904-0.904
	V5.966c0-0.446-0.32-0.821-0.76-0.892L14.87,3.842V3.059c0.29-0.325,0.467-0.753,0.467-1.222C15.337,0.824,14.513,0,13.5,0
	c-1.013,0-1.837,0.824-1.837,1.837c0,0.468,0.177,0.897,0.467,1.222v0.74L4.487,5.073C4.05,5.146,3.732,5.521,3.732,5.964v0.071
	c0,0.498,0.405,0.904,0.904,0.904h0.029v1.334L0.039,18.451c-0.001,0.001-0.001,0.003-0.002,0.004
	c-0.004,0.008-0.007,0.017-0.01,0.026c-0.002,0.005-0.004,0.01-0.006,0.015c-0.002,0.007-0.004,0.015-0.007,0.023
	c-0.002,0.007-0.004,0.013-0.005,0.02c-0.001,0.006-0.002,0.012-0.003,0.018c-0.002,0.009-0.003,0.017-0.004,0.026
	c-0.001,0.005-0.001,0.01-0.001,0.014C0.001,18.608,0,18.618,0,18.628c0,0.001,0,0.003,0,0.004c0,0.006,0,0.012,0.001,0.019
	c0,0.005,0,0.01,0,0.015c0.027,1.799,2.258,3.203,5.102,3.203c2.844,0,5.074-1.404,5.101-3.203c0-0.005,0-0.01,0.001-0.015
	c0-0.006,0.001-0.012,0.001-0.018c0-0.002,0-0.003,0-0.004c0-0.01-0.001-0.02-0.002-0.03c0-0.005-0.001-0.01-0.001-0.014
	c-0.001-0.008-0.003-0.017-0.004-0.025c-0.001-0.006-0.002-0.012-0.003-0.018c-0.002-0.007-0.003-0.014-0.005-0.02
	c-0.002-0.008-0.004-0.016-0.007-0.023c-0.002-0.005-0.004-0.01-0.005-0.015c-0.003-0.009-0.007-0.017-0.01-0.026
	c-0.001-0.001-0.001-0.003-0.002-0.004L5.54,8.273V6.939h6.59v9.502c-0.278,0.154-0.467,0.45-0.467,0.791v6.443l-2.771,0.866
	c-0.575,0.179-0.962,0.705-0.962,1.308v0.714C7.931,26.804,8.127,27,8.368,27h10.263c0.242,0,0.437-0.196,0.437-0.437v-0.714
	c0-0.603-0.387-1.128-0.962-1.308l-2.77-0.866v-6.443c0-0.34-0.189-0.636-0.467-0.791V6.939h6.59v1.334l-4.626,10.177
	c-0.001,0.001-0.001,0.003-0.002,0.004c-0.004,0.008-0.007,0.017-0.01,0.026c-0.002,0.005-0.004,0.01-0.005,0.015
	c-0.003,0.007-0.005,0.015-0.007,0.023c-0.002,0.006-0.004,0.013-0.005,0.02c-0.001,0.006-0.002,0.012-0.003,0.018
	c-0.002,0.008-0.003,0.017-0.004,0.025c-0.001,0.005-0.001,0.01-0.001,0.015c-0.001,0.01-0.001,0.02-0.002,0.03
	c0,0.001,0,0.003,0,0.004c0,0.006,0.001,0.012,0.001,0.019c0,0.005,0,0.01,0.001,0.015c0.027,1.799,2.258,3.203,5.101,3.203
	c2.844,0,5.074-1.404,5.101-3.203C26.999,18.66,26.999,18.655,26.999,18.65z M5.103,9.425l3.986,8.769H1.117L5.103,9.425z
	 M5.103,20.993c-2.025,0-3.773-0.845-4.152-1.924h8.304C8.875,20.149,7.128,20.993,5.103,20.993z M14.462,17.232v6.327h-1.924
	v-6.327c0-0.016,0.013-0.029,0.029-0.029h1.866C14.449,17.203,14.462,17.216,14.462,17.232z M13.004,16.328V3.606
	c0.158,0.044,0.324,0.068,0.496,0.068c0.172,0,0.338-0.024,0.496-0.068v12.723H13.004z M13.5,0.875c0.53,0,0.962,0.431,0.962,0.962
	c0,0.53-0.432,0.962-0.962,0.962c-0.531,0-0.962-0.432-0.962-0.962C12.538,1.306,12.969,0.875,13.5,0.875z M4.636,6.065
	c-0.016,0-0.029-0.013-0.029-0.029V5.964c0-0.015,0.01-0.027,0.024-0.029l7.498-1.25v1.379H4.636z M18.194,25.849v0.276H8.806
	v-0.276c0-0.218,0.14-0.408,0.348-0.473l3.014-0.942h2.666l3.014,0.942C18.055,25.441,18.194,25.631,18.194,25.849z M14.87,4.728
	l7.498,1.21c0.014,0.002,0.024,0.014,0.024,0.029v0.069c0,0.016-0.013,0.029-0.029,0.029H14.87V4.728z M21.897,9.425l3.986,8.769
	h-7.972L21.897,9.425z M21.897,20.993c-2.025,0-3.773-0.845-4.152-1.924h8.303C25.67,20.149,23.922,20.993,21.897,20.993z"/>
<g>
	<path fill="#E74C3C" d="M27,18.628c0-0.01-0.001-0.02-0.002-0.03c0-0.005-0.001-0.01-0.001-0.014
		c-0.001-0.008-0.003-0.017-0.004-0.026c-0.001-0.006-0.002-0.012-0.003-0.018c-0.001-0.007-0.003-0.014-0.005-0.02
		c-0.002-0.008-0.004-0.016-0.007-0.023c-0.002-0.005-0.004-0.01-0.005-0.015c-0.003-0.009-0.007-0.018-0.01-0.026
		c0-0.002-0.001-0.003-0.002-0.004L22.335,8.273V6.939h0.029c0.098,0-0.904,0-0.904,0v1.334l-4.626,10.177
		c-0.001,0.001-0.001,0.003-0.002,0.004c-0.004,0.008-0.007,0.017-0.01,0.026c-0.002,0.005-0.004,0.01-0.006,0.015
		c-0.003,0.008-0.005,0.015-0.007,0.023c-0.002,0.006-0.004,0.013-0.005,0.02c-0.001,0.006-0.002,0.012-0.003,0.018
		c-0.002,0.008-0.003,0.017-0.004,0.025c0,0.005-0.001,0.01-0.001,0.015c-0.001,0.01-0.001,0.02-0.002,0.03c0,0.001,0,0.003,0,0.004
		c0,0.006,0.001,0.012,0.001,0.019c0,0.005,0,0.01,0.001,0.015c0.027,1.799,2.258,3.203,5.101,3.203
		c2.844,0,5.074-1.404,5.101-3.203c0-0.005,0-0.01,0.001-0.015c0-0.006,0.001-0.012,0.001-0.019C27,18.63,27,18.629,27,18.628z
		 M21.897,9.425l3.986,8.769h-7.972L21.897,9.425z M21.897,20.993c-2.025,0-3.773-0.845-4.152-1.924h8.303
		C25.67,20.149,23.923,20.993,21.897,20.993z"/>
	<path fill="#E74C3C" d="M10.204,18.665c0-0.005,0-0.01,0.001-0.015c0-0.006,0.001-0.012,0.001-0.018c0-0.002,0-0.003,0-0.004
		c0-0.01-0.001-0.02-0.002-0.03c0-0.005-0.001-0.01-0.001-0.014c-0.001-0.008-0.003-0.017-0.004-0.025
		c-0.001-0.006-0.002-0.013-0.003-0.018c-0.001-0.007-0.003-0.014-0.005-0.02c-0.002-0.008-0.004-0.016-0.007-0.023
		c-0.002-0.005-0.004-0.01-0.005-0.015c-0.003-0.009-0.007-0.017-0.01-0.026c-0.001-0.001-0.001-0.003-0.002-0.004L5.54,8.273V6.939
		c0,0-1.002,0-0.904,0h0.029v1.334L0.039,18.451c-0.001,0.001-0.001,0.003-0.002,0.004c-0.004,0.008-0.007,0.017-0.01,0.026
		c-0.002,0.005-0.004,0.01-0.006,0.015c-0.003,0.007-0.005,0.015-0.007,0.023c-0.002,0.006-0.004,0.013-0.005,0.02
		c-0.001,0.006-0.002,0.012-0.003,0.018c-0.002,0.009-0.003,0.017-0.004,0.026c-0.001,0.005-0.001,0.01-0.001,0.014
		C0.001,18.608,0,18.618,0,18.628c0,0.001,0,0.003,0,0.004c0,0.006,0,0.012,0.001,0.019c0,0.005,0,0.01,0,0.015
		c0.027,1.799,2.258,3.203,5.102,3.203C7.946,21.868,10.177,20.464,10.204,18.665z M5.103,9.425l3.986,8.769H1.117L5.103,9.425z
		 M5.103,20.993c-2.025,0-3.773-0.845-4.152-1.924h8.304C8.875,20.149,7.128,20.993,5.103,20.993z"/>
</g>
</svg>
