<?xml version="1.0" encoding="utf-8"?>
<!-- Generator: Adobe Illustrator 17.0.0, SVG Export Plug-In . SVG Version: 6.00 Build 0)  -->
<!DOCTYPE svg PUBLIC "-//W3C//DTD SVG 1.1//EN" "http://www.w3.org/Graphics/SVG/1.1/DTD/svg11.dtd">
<svg version="1.1" id="Слой_1" xmlns="http://www.w3.org/2000/svg" xmlns:xlink="http://www.w3.org/1999/xlink" x="0px" y="0px"
	 width="28.165px" height="28.8px" viewBox="0 0 28.165 28.8" enable-background="new 0 0 28.165 28.8" xml:space="preserve">
<path fill="#E74C3C" d="M25.48,19.996c-0.103-0.278-0.412-0.421-0.691-0.318l-5.594,2.062c-0.279,0.103-0.421,0.412-0.318,0.69
	c0.08,0.217,0.286,0.351,0.505,0.351c0.062,0,0.125-0.011,0.186-0.033l5.593-2.062C25.441,20.584,25.583,20.275,25.48,19.996z"/>
<path fill="#E74C3C" d="M18.349,22.625c-0.103-0.279-0.412-0.421-0.691-0.318l-0.237,0.087c-0.279,0.103-0.421,0.412-0.318,0.69
	c0.08,0.217,0.286,0.351,0.505,0.351c0.062,0,0.125-0.011,0.186-0.033l0.237-0.087C18.309,23.212,18.452,22.903,18.349,22.625z"/>
<path fill="#E74C3C" d="M25.48,17.807c-0.103-0.278-0.412-0.421-0.691-0.318l-4.42,1.629c-0.279,0.103-0.421,0.412-0.318,0.69
	c0.08,0.217,0.286,0.351,0.505,0.351c0.062,0,0.125-0.011,0.186-0.033l4.42-1.629C25.441,18.394,25.583,18.085,25.48,17.807z"/>
<path fill="#E74C3C" d="M25.48,15.64c-0.103-0.278-0.412-0.421-0.691-0.318l-4.42,1.629c-0.279,0.103-0.421,0.412-0.318,0.69
	c0.08,0.217,0.286,0.351,0.505,0.351c0.062,0,0.125-0.011,0.186-0.033l4.42-1.629C25.441,16.228,25.583,15.919,25.48,15.64z"/>
<path fill="#2C3947" d="M27.313,5.81L14.351,1.033c-0.12-0.044-0.252-0.044-0.372,0L1.017,5.81l0,0
	C0.974,5.826,0.933,5.847,0.895,5.873c-0.144,0.101-0.23,0.265-0.23,0.441v15.371c0,0.225,0.14,0.426,0.351,0.504l12.962,4.778
	C14.039,26.989,14.102,27,14.165,27c0.063,0,0.126-0.012,0.186-0.034l0,0l12.962-4.778c0.211-0.078,0.352-0.279,0.352-0.504V6.314
	C27.665,6.089,27.525,5.888,27.313,5.81z M13.627,25.692L1.741,21.311V7.085l2.42,0.892v6.51c0,0.225,0.14,0.426,0.352,0.504
	l5.809,2.141c0.06,0.022,0.123,0.033,0.186,0.033c0.109,0,0.216-0.033,0.308-0.097c0.144-0.101,0.23-0.265,0.23-0.441v-6.113
	l2.582,0.952L13.627,25.692L13.627,25.692z M9.97,10.118v5.739l-4.733-1.745V8.374L9.97,10.118z M6.252,7.599l4.255-1.568
	l4.255,1.568l-4.255,1.568L6.252,7.599z M14.165,10.519l-2.109-0.777l4.447-1.639c0.211-0.078,0.352-0.279,0.352-0.504
	c0-0.225-0.14-0.426-0.352-0.504l-5.809-2.141c-0.12-0.044-0.252-0.044-0.372,0L4.693,7.028L2.756,6.314L14.165,2.11l11.408,4.205
	L14.165,10.519z M26.589,21.311l-11.887,4.381V11.466l11.887-4.381V21.311z"/>
<path fill="#E74C3C" d="M4.512,14.991l5.809,2.141c0.06,0.022,0.123,0.033,0.186,0.033c0.109,0,0.216-0.033,0.308-0.096
	c0.144-0.1,0.23-0.265,0.23-0.441v-6.107L9.97,10.12v5.737l-4.733-1.745V8.374L4.161,7.977v6.51
	C4.161,14.712,4.301,14.913,4.512,14.991z"/>
</svg>
