<?xml version="1.0" encoding="iso-8859-1"?>
<!-- Generator: Adobe Illustrator 16.0.0, SVG Export Plug-In . SVG Version: 6.00 Build 0)  -->
<!DOCTYPE svg PUBLIC "-//W3C//DTD SVG 1.1//EN" "http://www.w3.org/Graphics/SVG/1.1/DTD/svg11.dtd">
<svg xmlns="http://www.w3.org/2000/svg" xmlns:xlink="http://www.w3.org/1999/xlink" version="1.1" id="Capa_1" x="0px" y="0px" width="512px" height="512px" viewBox="0 0 421.051 421.05" style="enable-background:new 0 0 421.051 421.05;" xml:space="preserve">
<g>
	<g>
		<path d="M404.893,197.139L246.703,318.179c-9.814,7.514-22.602,11.637-36.004,11.637c-13.559,0-26.449-4.184-36.309-11.829    L15.968,195.391C10.051,190.807,4.679,184.681,0,177.827v139.855c0,13.008,10.544,23.552,23.55,23.552h373.953    c13,0,23.548-10.544,23.548-23.552V179.514C416.33,186.398,410.903,192.546,404.893,197.139z" fill="#b38125"/>
		<path d="M217.375,188.128c6.698,0.433,10.041,3.196,10.041,8.305v3.212c0,6.049-1.563,10.101-4.701,12.167    c-3.13,2.058-7.079,3.096-11.844,3.096c-5.37,0-9.72-1.335-13.086-4c-3.37-2.661-5.646-6.405-6.823-11.263    c-1.178-4.845-1.783-11.924-1.783-21.235c0-13.25,2.016-22.704,6.029-28.318c4.009-5.62,9.828-8.424,17.468-8.424    c12.824,0,21.448,7.418,25.872,22.266h7.014l-0.773-30.507h-6.885c-0.309,3.216-1.15,6.242-2.517,9.075    c-7.895-6.659-17.052-9.979-27.475-9.979c-12.792,0-23.49,4.561-32.142,13.677c-8.65,9.119-12.974,20.009-12.974,32.663    c0,11.802,4.09,22.125,12.285,30.987c8.195,8.864,18.917,13.28,32.188,13.28c4.887,0,10.958-0.766,18.199-2.316    c10.135-2.176,17.324-3.277,21.572-3.277c0.854,0,1.964,0.044,3.342,0.136v-18.28c0-4.248,0.493-7.049,1.476-8.397    c0.985-1.354,3.109-2.312,6.375-2.861v-7.141h-40.871v7.135H217.375z" fill="#b38125"/>
		<path d="M388.102,79.817H32.957c-18.195,0-32.951,14.75-32.951,32.945v16.479c0,18.206,11.662,41.994,26.058,53.125    l158.403,122.597c14.397,11.133,37.778,11.209,52.237,0.136L394.878,184.06c14.459-11.059,26.173-34.774,26.173-52.974V112.77    C421.051,94.558,406.303,79.817,388.102,79.817z M269.397,216.514c0,11.141-9.041,20.186-20.186,20.186h-77.359    c-11.154,0-20.181-9.045-20.181-20.186v-77.355c0-11.149,9.027-20.188,20.181-20.188h77.359c11.145,0,20.186,9.039,20.186,20.188    V216.514z" fill="#b38125"/>
	</g>
</g>
<g>
</g>
<g>
</g>
<g>
</g>
<g>
</g>
<g>
</g>
<g>
</g>
<g>
</g>
<g>
</g>
<g>
</g>
<g>
</g>
<g>
</g>
<g>
</g>
<g>
</g>
<g>
</g>
<g>
</g>
</svg>
