<?xml version="1.0" encoding="iso-8859-1"?>
<!-- Generator: Adobe Illustrator 19.0.0, SVG Export Plug-In . SVG Version: 6.00 Build 0)  -->
<svg version="1.1" id="Capa_1" xmlns="http://www.w3.org/2000/svg" xmlns:xlink="http://www.w3.org/1999/xlink" x="0px" y="0px"
	 viewBox="0 0 512 512" style="enable-background:new 0 0 512 512;" xml:space="preserve">
<g>
	<g>
		<path d="M369.26,78.101c-0.13-0.64-0.32-1.27-0.57-1.87c-0.25-0.6-0.56-1.189-0.92-1.729c-0.37-0.55-0.79-1.061-1.25-1.521
			c-0.46-0.46-0.97-0.88-1.52-1.239c-0.54-0.36-1.12-0.671-1.72-0.921c-0.61-0.25-1.24-0.439-1.87-0.569
			c-3.261-0.66-6.71,0.41-9.03,2.729c-0.46,0.46-0.88,0.971-1.24,1.521c-0.359,0.54-0.67,1.13-0.92,1.729
			c-0.25,0.601-0.439,1.23-0.57,1.87c-0.13,0.641-0.199,1.3-0.199,1.95c0,0.65,0.069,1.31,0.199,1.96
			c0.13,0.638,0.32,1.259,0.57,1.869c0.25,0.6,0.561,1.18,0.92,1.72c0.36,0.55,0.78,1.061,1.24,1.521
			c1.86,1.87,4.439,2.93,7.07,2.93c0.649,0,1.31-0.06,1.96-0.19c0.63-0.13,1.26-0.319,1.87-0.569c0.6-0.25,1.18-0.561,1.72-0.92
			c0.55-0.37,1.06-0.79,1.52-1.25c0.46-0.46,0.88-0.971,1.25-1.521c0.36-0.54,0.67-1.12,0.92-1.72c0.25-0.61,0.44-1.23,0.57-1.87
			c0.13-0.65,0.19-1.31,0.19-1.96C369.45,79.401,369.389,78.741,369.26,78.101z"/>
	</g>
</g>
<g>
	<g>
		<path d="M162.349,78.1c-0.13-0.64-0.319-1.27-0.569-1.87c-0.25-0.6-0.561-1.189-0.921-1.729c-0.359-0.55-0.779-1.061-1.239-1.521
			c-0.46-0.46-0.971-0.88-1.521-1.239c-0.54-0.36-1.12-0.671-1.729-0.921c-0.601-0.25-1.23-0.439-1.87-0.569
			c-1.29-0.26-2.62-0.26-3.91,0c-0.63,0.13-1.26,0.319-1.87,0.569c-0.6,0.25-1.18,0.561-1.72,0.921
			c-0.55,0.359-1.061,0.779-1.52,1.239c-0.46,0.46-0.88,0.971-1.25,1.521c-0.359,0.54-0.67,1.13-0.92,1.729
			c-0.25,0.601-0.439,1.23-0.569,1.87c-0.131,0.641-0.19,1.3-0.19,1.95c0,0.65,0.06,1.31,0.19,1.96
			c0.129,0.639,0.319,1.26,0.569,1.87c0.25,0.6,0.561,1.18,0.92,1.72c0.37,0.55,0.79,1.061,1.25,1.521
			c0.46,0.46,0.971,0.88,1.52,1.25c0.54,0.359,1.12,0.67,1.72,0.92c0.61,0.25,1.24,0.439,1.87,0.569c0.65,0.131,1.31,0.19,1.96,0.19
			c0.65,0,1.31-0.06,1.95-0.19s1.27-0.319,1.87-0.569c0.609-0.25,1.189-0.561,1.729-0.92c0.55-0.37,1.061-0.79,1.521-1.25
			c0.46-0.46,0.88-0.971,1.239-1.521c0.36-0.54,0.671-1.12,0.921-1.72c0.25-0.61,0.439-1.23,0.569-1.87c0.13-0.65,0.2-1.31,0.2-1.96
			S162.479,78.74,162.349,78.1z"/>
	</g>
</g>
<g>
	<g>
		<path d="M402.995,439.001v-10.777c0-20.154-16.396-36.551-36.551-36.551H290.99V90.054h34.795c5.522,0,10-4.478,10-10
			c0-5.522-4.478-10-10-10h-22.291c2.341-5.856,3.642-12.236,3.642-18.917C307.137,22.94,284.197,0,256,0
			c-28.197,0-51.137,22.94-51.137,51.137c0,6.681,1.301,13.061,3.642,18.917h-22.291c-5.522,0-10,4.478-10,10
			c0,5.522,4.478,10,10,10h34.795v301.619h-75.454c-20.154,0-36.551,16.396-36.551,36.551v10.777
			c-18.87,1.416-33.789,17.223-33.789,36.448c0,20.154,16.397,36.551,36.552,36.551h288.465c20.154,0,36.552-16.397,36.552-36.551
			C436.784,456.224,421.865,440.417,402.995,439.001z M256,20c17.169,0,31.137,13.968,31.137,31.137
			c0,10.147-4.881,19.174-12.417,24.862c-0.526,0.397-1.063,0.771-1.607,1.132c-0.218,0.144-0.438,0.285-0.66,0.424
			c-0.529,0.331-1.063,0.649-1.607,0.946c-0.257,0.14-0.52,0.269-0.781,0.401c-0.375,0.191-0.754,0.374-1.136,0.549
			c-0.349,0.16-0.7,0.317-1.056,0.465c-0.469,0.194-0.941,0.376-1.419,0.547c-0.309,0.111-0.621,0.216-0.934,0.317
			c-0.543,0.174-1.09,0.338-1.642,0.482c-0.276,0.072-0.556,0.134-0.835,0.199c-0.496,0.114-0.994,0.218-1.496,0.308
			c-0.221,0.04-0.44,0.084-0.662,0.119c-0.685,0.107-1.376,0.191-2.071,0.253c-0.183,0.016-0.367,0.029-0.551,0.042
			c-0.749,0.053-1.502,0.091-2.26,0.091c-0.759,0-1.511-0.038-2.26-0.091c-0.184-0.013-0.368-0.026-0.551-0.042
			c-0.695-0.062-1.386-0.145-2.071-0.253c-0.222-0.035-0.441-0.079-0.662-0.119c-0.502-0.09-1.001-0.194-1.496-0.308
			c-0.279-0.065-0.559-0.126-0.835-0.199c-0.553-0.144-1.099-0.308-1.642-0.482c-0.314-0.101-0.625-0.206-0.935-0.317
			c-0.477-0.17-0.95-0.353-1.419-0.547c-0.356-0.147-0.707-0.304-1.056-0.465c-0.382-0.175-0.761-0.358-1.136-0.549
			c-0.261-0.133-0.524-0.262-0.781-0.401c-0.544-0.297-1.079-0.615-1.607-0.946c-0.222-0.139-0.442-0.28-0.66-0.424
			c-0.544-0.36-1.082-0.735-1.607-1.132c-7.536-5.688-12.417-14.715-12.417-24.862C224.863,33.968,238.831,20,256,20z
			 M270.99,100.05v291.623h-29.98V100.05c3.137,0.96,6.375,1.608,9.679,1.947c0.096,0.01,0.194,0.017,0.29,0.027
			c0.683,0.066,1.369,0.118,2.058,0.157c0.192,0.011,0.383,0.023,0.575,0.032c0.793,0.036,1.588,0.061,2.388,0.061
			c0.799,0,1.595-0.024,2.388-0.061c0.192-0.009,0.383-0.021,0.575-0.032c0.689-0.039,1.375-0.091,2.058-0.157
			c0.097-0.009,0.194-0.017,0.29-0.027C264.616,101.659,267.853,101.011,270.99,100.05z M400.232,492H111.768
			c-9.127,0-16.552-7.425-16.552-16.551c0-9.127,7.425-16.552,16.552-16.552h7.237c0.153,0,0.303-0.016,0.454-0.023
			c0.139,0.006,0.275,0.021,0.416,0.021h192.244c5.522,0,10-4.478,10-10c0-5.523-4.478-10-10-10H129.005v-10.672
			c0-9.126,7.425-16.551,16.551-16.551h85.454h49.98h85.454c9.126,0,16.551,7.425,16.551,16.551v20.674c0,5.522,4.478,10,10,10
			h7.237c9.127,0,16.552,7.425,16.552,16.552C416.784,484.575,409.359,492,400.232,492z"/>
	</g>
</g>
<g>
	<g>
		<path d="M354.219,446.51c-1.86-1.861-4.439-2.93-7.07-2.93c-2.63,0-5.21,1.069-7.069,2.93c-1.86,1.86-2.931,4.44-2.931,7.07
			s1.07,5.21,2.931,7.069c1.859,1.87,4.439,2.931,7.069,2.931c2.631,0,5.21-1.061,7.07-2.931c1.86-1.859,2.93-4.439,2.93-7.069
			S356.08,448.37,354.219,446.51z"/>
	</g>
</g>
<g>
	<g>
		<path d="M500.738,206.506l-55.85-116.453h18.754c5.522,0,10-4.478,10-10c0-5.522-4.478-10-10-10H392.12c-5.522,0-10,4.478-10,10
			c0,5.522,4.478,10,10,10h21.634l-55.849,116.453c-3.793,1.421-6.498,5.069-6.498,9.357v2.542
			c0,42.962,34.952,77.914,77.914,77.914c42.963,0,77.915-34.952,77.915-77.914v-2.542
			C507.236,211.575,504.531,207.927,500.738,206.506z M429.321,103.844l48.928,102.019h-97.855L429.321,103.844z M429.322,276.319
			c-29.408,0-53.767-22.031-57.436-50.456h114.874C483.089,254.288,458.729,276.319,429.322,276.319z"/>
	</g>
</g>
<g>
	<g>
		<path d="M154.095,206.506L98.246,90.054h21.634c5.522,0,10-4.478,10-10c0-5.522-4.478-10-10-10H48.357c-5.522,0-10,4.478-10,10
			c0,5.522,4.478,10,10,10h18.754l-55.85,116.453c-3.793,1.421-6.498,5.068-6.498,9.357v2.542c0,42.962,34.952,77.914,77.915,77.914
			c42.963-0.001,77.915-34.953,77.915-77.915v-2.542C160.593,211.575,157.888,207.927,154.095,206.506z M82.679,103.844
			l48.927,102.019H33.751L82.679,103.844z M82.678,276.319c-29.409,0-53.767-22.031-57.437-50.456h114.874
			C136.445,254.288,112.087,276.319,82.678,276.319z"/>
	</g>
</g>
<g>
</g>
<g>
</g>
<g>
</g>
<g>
</g>
<g>
</g>
<g>
</g>
<g>
</g>
<g>
</g>
<g>
</g>
<g>
</g>
<g>
</g>
<g>
</g>
<g>
</g>
<g>
</g>
<g>
</g>
</svg>
